<?xml version="1.0" encoding="UTF-8"?>
<svg id="Layer_1" data-name="Layer 1" xmlns="http://www.w3.org/2000/svg" xmlns:xlink="http://www.w3.org/1999/xlink" viewBox="0 0 1325.69 948.02">
  <defs>
    <style>
      .cls-1 {
        fill: #fff;
      }

      .cls-2 {
        fill: #0284c7;
      }

      .cls-3 {
        clip-path: url(#clippath-2);
      }

      .cls-4 {
        fill: #fda4af;
      }

      .cls-5 {
        fill: #eaab20;
      }

      .cls-6 {
        fill: #f43f5e;
      }

      .cls-7 {
        fill: #ff738b;
      }

      .cls-8 {
        clip-path: url(#clippath-1);
      }

      .cls-9 {
        clip-path: url(#clippath);
      }

      .cls-10 {
        fill: none;
      }

      .cls-11 {
        fill: #e0b3a6;
      }

      .cls-12 {
        fill: #994f74;
      }

      .cls-13 {
        fill: #0ea5e9;
      }

      .cls-14 {
        fill: #0369a1;
      }

      .cls-15 {
        fill: #434757;
      }

      .cls-16 {
        fill: #fecdd3;
      }

      .cls-17 {
        fill: #f48e9f;
      }
    </style>
    <clipPath id="clippath">
      <path class="cls-10" d="m172.36,745.84c.38-34.62-2.93-69.14-3.84-103.74-.95-36.34,5.67-68.78,16.72-103.36,1.3-4.06,2.69-8.25,5.67-11.35,7.82-8.14,19.75-4.68,29.59-5.03,5.94-.21,11.47-.7,16.84-.54.64-.58,1.26-1.19,1.93-1.74,12.83-10.54,36.84-13.58,49.52-.42,9.99,10.37,8.38,27.85,10.62,42.21,8.87,56.82,20.73,112.85,28.63,169.94,1.78,12.88,3.45,25.97,2.25,38.95-1.53,16.48-7.6,31.83-13.57,46.83-10.51,26.37-21.02,52.74-31.53,79.12-4.28.07-8.56.11-12.84.19,3.36-21.13,5.43-42.42,4.85-63.9-1.14-42.66-12.51-83.63-26.66-123.2-.52,3.22-1.05,6.44-1.65,9.66-5.35,28.69-16.86,55.9-29.55,82.27-16.34,33.95-34.95,67.09-56.46,98.14-7.16.24-14.33.48-21.49.72,20.58-48.54,30.4-101.96,30.98-154.75Z"/>
    </clipPath>
    <clipPath id="clippath-1">
      <path class="cls-10" d="m1244.91,99.8c-10.6,17.91-23.93,34.19-39.26,48.25-16.87,15.47-36.17,28.32-56.99,37.82-9.33,4.26-19.84,9.3-30.11,10.48-11.89,1.37-23.9,2.02-35.85,1.02-14.32-1.21-27.95-8.02-42.16-10.6-41.77-7.58-95.31,4.62-122.44,39.9-7.81,10.16-17.63,19.3-26.33,28.71-8.65,9.37-17.36,18.68-26.18,27.89-37.96,39.58-78.46,77.5-125.3,106.45l-.12.4c3.81,7.85,7.82,15.58,12.05,23.19,11.68-1.76,23.22-4.62,34.36-8.48,22.68-7.86,42.37-20.96,64.65-30.32,23.64-9.94,46.5-22.02,66.92-37.53,4.71-3.58,9.27-7.39,13.62-11.4.05,4.59.09,9.17.14,13.76.23,21.86-.19,43.73.62,65.59.8,21.62,3.59,43,6.64,64.35.1.72.26,1.51.84,1.95.42.32.98.37,1.51.42,20.94,1.71,41.97-.43,62.95-1.45,15.89-.77,31.81-.89,47.72-1.02,9.48-.07,18.96-.15,28.45-.22,4.88-.04,9.75-.08,14.63-.11,4.05-.03,6.33.44,6.53-4.3,2.41-58.04,2.78-115.94,2.82-173.98,13.61-1.98,26.96-5.04,39.56-10.5,29.85-12.93,52.78-38,71.46-64.63,21.74-31,39.08-66.58,46.98-103.41-5.97-3.97-11.87-8.05-17.7-12.23Z"/>
    </clipPath>
    <clipPath id="clippath-2">
      <path class="cls-10" d="m924.31,181.03c-29.79,15.77-61.82,27.51-94.49,35.95-37.24,9.62-75.39,15.06-113.66,18.46-4.63-.71-8.9-1.29-12.35-1.88-13.43-2.28-27.01-3.71-40.62-4.27-4.02-4.93-14.84-10.07-19.33-13.98-6.42-5.59-12.42-11.64-18.03-18.04-11.49-13.11-21.26-27.71-29.35-43.14-11.74-22.39-19.97-46.4-26.04-70.98-7.15,1.92-14.03,4.88-20.86,8.44-3.08,18.01-3.3,36.64-1.46,54.83,3.34,33.06,13.05,65.1,22.95,96.82,4.2,13.45,8.68,27.19,16.32,38.89-2.23,5.54-4.29,11.15-6.32,16.76-15.87,43.75-31.9,88.27-34.46,134.74-.09,1.69-.15,3.47.59,4.99.81,1.66,2.44,2.74,4,3.72,47.64,29.89,107.27,40.02,162.1,27.54-6.53-18.51-4.76-38.87-1.34-58.2,5.91-33.41,16.57-65.98,31.51-96.44,25.31-5.2,49.88-14.47,72.84-26.43,35.58-18.53,67.57-43.3,97.56-69.94,8.36-7.42,16.61-15.07,24.43-23.1-4.73-4.85-9.37-9.78-13.98-14.75Z"/>
    </clipPath>
  </defs>
  <g>
    <path class="cls-4" d="m265.53,893.68l-4.26,12.33c-1.54,4.44,1.09,9.24,5.67,10.34l45.14,10.82c5.56,1.33,8.9-5.94,4.26-9.28-5.29-3.81-10.39-7.88-15.27-12.19-6.05-5.35-5.8-11.15-14.07-11.47-1.31-.05-9.92-1.46-15.2-3.45-2.55-.96-5.37.33-6.26,2.9Z"/>
    <path class="cls-4" d="m168.4,900.69l1.45,12.96c.52,4.67-3.1,8.78-7.8,8.84l-46.41.64c-5.72.08-7.37-7.75-2.11-9.98,6-2.55,11.87-5.4,17.58-8.54,7.07-3.89,8.11-9.6,16.25-8.1,1.29.24,10,.75,15.59-.02,2.69-.37,5.17,1.5,5.47,4.21Z"/>
    <path class="cls-11" d="m42.23,303.3c-.77-1.66-2.36-3.34-4.14-2.92-2.45.57-2.43,3.96-2.59,6.47-.14,2.31-.94,4.58-2.26,6.47-8.41-10.07-20.36-17.13-33.24-19.64.58,2.16,2.59,3.56,4.09,5.22s2.47,4.43.88,6c-.77.76-1.94,1.01-2.68,1.8-1.11,1.2-.77,3.2.17,4.54s2.33,2.3,3.4,3.54c.31.36.61.76.72,1.22.58,2.38-3.41,3.33-4.12,5.67-.68,2.27,1.98,4.03,4.18,4.92,3.94,1.59,7.88,3.17,11.82,4.76,1.07.43,2.19.9,2.9,1.81,3.96,5.11,23.15,11.02,25.01.38.73-4.17-2.88-9.64-2.92-14.28-.05-5.43.98-10.79-1.23-15.96Z"/>
    <path class="cls-11" d="m435.48,490.16c2.21-.73,4.61-1.51,6.73-.49,1.09.52,1.98,1.48,2.84,2.41,1.79,1.94,3.59,3.89,5.38,5.83,5.13,5.55,10.37,11.28,13.42,18.58-2.02,1.97-4.92-.93-7.57-1.02-2.19-.08-4.14,1.84-6.32,1.8-1.72-.03-3.23-1.25-4.61-2.41-2.39-2.01-4.78-4.03-7.17-6.04-.92-.78-1.88-1.57-3-1.84-4.3-1.04-7.36,5.89-11.76,5.88-1.48,0-3.13-1.31-2.89-2.99.08-.58.38-1.08.52-1.65.46-1.83-.89-3.74-2.47-4.32-1.58-.58-3.29-.2-4.91.18-3.25.77-9.46,1.49-10.08-3.97-.48-4.21,4.52-6.06,7.45-6.59,2.99-.53,6.15.17,9.17-.01,5.19-.31,10.3-1.7,15.28-3.36Z"/>
    <path class="cls-4" d="m275.41,349.07c15.18,4.05,26.39,26.28,33.26,38.63,25.29,45.45,63.31,86.51,111.01,105.49-.49,4.16-1,8.32-1.47,12.48-17.62,2.64-35.47,3.43-53.11,1.19-26.24-3.33-52.04-13.64-71.21-31.86-23.92-22.73-35.57-55.46-42.5-87.73-3.5-16.32.16-44.57,24.03-38.2Z"/>
    <g class="cls-9">
      <path class="cls-6" d="m172.36,745.84c.38-34.62-2.93-69.14-3.84-103.74-.95-36.34,5.67-68.78,16.72-103.36,1.3-4.06,2.69-8.25,5.67-11.35,7.82-8.14,19.75-4.68,29.59-5.03,5.94-.21,11.47-.7,16.84-.54.64-.58,1.26-1.19,1.93-1.74,12.83-10.54,36.84-13.58,49.52-.42,9.99,10.37,8.38,27.85,10.62,42.21,8.87,56.82,20.73,112.85,28.63,169.94,1.78,12.88,3.45,25.97,2.25,38.95-1.53,16.48-7.6,31.83-13.57,46.83-10.51,26.37-21.02,52.74-31.53,79.12-4.28.07-8.56.11-12.84.19,3.36-21.13,5.43-42.42,4.85-63.9-1.14-42.66-12.51-83.63-26.66-123.2-.52,3.22-1.05,6.44-1.65,9.66-5.35,28.69-16.86,55.9-29.55,82.27-16.34,33.95-34.95,67.09-56.46,98.14-7.16.24-14.33.48-21.49.72,20.58-48.54,30.4-101.96,30.98-154.75Z"/>
      <g>
        <path class="cls-17" d="m352.02,532.47c3.55,0,6.43,2.88,6.43,6.43s-2.88,6.44-6.43,6.44-6.43-2.88-6.43-6.44c0-3.55,2.88-6.43,6.43-6.43Z"/>
        <path class="cls-17" d="m318.86,532.47c3.55,0,6.43,2.88,6.43,6.43s-2.88,6.44-6.43,6.44-6.43-2.88-6.43-6.44c0-3.55,2.88-6.43,6.43-6.43Z"/>
        <path class="cls-17" d="m285.7,532.47c3.55,0,6.43,2.88,6.43,6.43,0,3.55-2.88,6.44-6.43,6.44-3.55,0-6.43-2.88-6.43-6.44,0-3.55,2.88-6.43,6.43-6.43Z"/>
        <path class="cls-17" d="m252.54,532.47c3.55,0,6.43,2.88,6.43,6.43,0,3.55-2.88,6.44-6.43,6.44-3.55,0-6.43-2.88-6.43-6.44s2.88-6.43,6.43-6.43Z"/>
        <path class="cls-17" d="m219.38,532.47c3.55,0,6.44,2.88,6.44,6.43,0,3.55-2.88,6.44-6.44,6.44-3.55,0-6.43-2.88-6.43-6.44,0-3.55,2.88-6.43,6.43-6.43Z"/>
        <path class="cls-17" d="m186.22,532.47c3.55,0,6.43,2.88,6.43,6.43,0,3.55-2.88,6.44-6.43,6.44-3.55,0-6.43-2.88-6.43-6.44s2.88-6.43,6.43-6.43Z"/>
        <path class="cls-17" d="m153.06,532.47c3.55,0,6.43,2.88,6.43,6.43,0,3.55-2.88,6.44-6.43,6.44-3.55,0-6.43-2.88-6.43-6.44s2.88-6.43,6.43-6.43Z"/>
        <path class="cls-17" d="m119.9,532.47c3.55,0,6.43,2.88,6.43,6.43s-2.88,6.44-6.43,6.44-6.43-2.88-6.43-6.44c0-3.55,2.88-6.43,6.43-6.43Z"/>
        <path class="cls-17" d="m335.44,554.59c3.55,0,6.43,2.88,6.43,6.44,0,3.55-2.88,6.43-6.43,6.43s-6.43-2.88-6.43-6.43,2.88-6.44,6.43-6.44Z"/>
        <path class="cls-17" d="m302.28,554.59c3.55,0,6.43,2.88,6.43,6.44,0,3.55-2.88,6.43-6.43,6.43s-6.43-2.88-6.43-6.43,2.88-6.44,6.43-6.44Z"/>
        <path class="cls-17" d="m269.12,554.59c3.55,0,6.43,2.88,6.43,6.44,0,3.55-2.88,6.43-6.43,6.43s-6.43-2.88-6.43-6.43c0-3.55,2.88-6.44,6.43-6.44Z"/>
        <path class="cls-17" d="m235.96,554.59c3.55,0,6.43,2.88,6.43,6.44,0,3.55-2.88,6.43-6.43,6.43-3.55,0-6.43-2.88-6.43-6.43,0-3.55,2.88-6.44,6.43-6.44Z"/>
        <path class="cls-17" d="m202.8,554.59c3.55,0,6.43,2.88,6.43,6.44,0,3.55-2.88,6.43-6.43,6.43-3.55,0-6.44-2.88-6.44-6.43s2.88-6.44,6.44-6.44Z"/>
        <path class="cls-17" d="m169.64,554.59c3.55,0,6.43,2.88,6.43,6.44s-2.88,6.43-6.43,6.43-6.43-2.88-6.43-6.43,2.88-6.44,6.43-6.44Z"/>
        <path class="cls-17" d="m136.48,554.59c3.55,0,6.43,2.88,6.43,6.44,0,3.55-2.88,6.43-6.43,6.43s-6.43-2.88-6.43-6.43,2.88-6.44,6.43-6.44Z"/>
        <path class="cls-17" d="m103.32,567.46c-3.55,0-6.43-2.88-6.43-6.43s2.88-6.44,6.43-6.44c3.55,0,6.43,2.88,6.43,6.44s-2.88,6.43-6.43,6.43Z"/>
        <circle class="cls-17" cx="352.02" cy="586.48" r="6.43"/>
        <circle class="cls-17" cx="318.86" cy="586.48" r="6.43"/>
        <circle class="cls-17" cx="285.7" cy="586.48" r="6.43"/>
        <circle class="cls-17" cx="252.54" cy="586.48" r="6.43"/>
        <path class="cls-17" d="m219.38,580.04c3.55,0,6.44,2.88,6.44,6.43s-2.88,6.43-6.44,6.43c-3.55,0-6.43-2.88-6.43-6.43,0-3.55,2.88-6.43,6.43-6.43Z"/>
        <circle class="cls-17" cx="186.22" cy="586.48" r="6.43"/>
        <circle class="cls-17" cx="153.06" cy="586.48" r="6.43"/>
        <circle class="cls-17" cx="119.9" cy="586.48" r="6.43"/>
        <circle class="cls-17" cx="335.44" cy="608.6" r="6.43"/>
        <circle class="cls-17" cx="302.28" cy="608.6" r="6.43"/>
        <circle class="cls-17" cx="269.12" cy="608.6" r="6.43"/>
        <circle class="cls-17" cx="235.96" cy="608.6" r="6.43"/>
        <path class="cls-17" d="m202.8,602.16c3.55,0,6.43,2.88,6.43,6.43s-2.88,6.43-6.43,6.43c-3.55,0-6.44-2.88-6.44-6.43s2.88-6.43,6.44-6.43Z"/>
        <circle class="cls-17" cx="169.64" cy="608.6" r="6.43"/>
        <circle class="cls-17" cx="136.48" cy="608.6" r="6.43"/>
        <circle class="cls-17" cx="103.32" cy="608.6" r="6.43"/>
        <path class="cls-17" d="m352.02,627.61c3.55,0,6.43,2.88,6.43,6.44,0,3.55-2.88,6.43-6.43,6.43-3.55,0-6.43-2.88-6.43-6.43s2.88-6.44,6.43-6.44Z"/>
        <path class="cls-17" d="m318.86,627.61c3.55,0,6.43,2.88,6.43,6.44,0,3.55-2.88,6.43-6.43,6.43-3.55,0-6.43-2.88-6.43-6.43s2.88-6.44,6.43-6.44Z"/>
        <path class="cls-17" d="m285.7,627.61c3.55,0,6.43,2.88,6.43,6.44,0,3.55-2.88,6.43-6.43,6.43s-6.43-2.88-6.43-6.43c0-3.55,2.88-6.44,6.43-6.44Z"/>
        <path class="cls-17" d="m252.54,627.61c3.55,0,6.43,2.88,6.43,6.44s-2.88,6.43-6.43,6.43-6.43-2.88-6.43-6.43,2.88-6.44,6.43-6.44Z"/>
        <path class="cls-17" d="m219.38,627.61c3.55,0,6.44,2.88,6.44,6.44,0,3.55-2.88,6.43-6.44,6.43s-6.43-2.88-6.43-6.43c0-3.55,2.88-6.44,6.43-6.44Z"/>
        <path class="cls-17" d="m186.22,627.61c3.55,0,6.43,2.88,6.43,6.44s-2.88,6.43-6.43,6.43-6.43-2.88-6.43-6.43,2.88-6.44,6.43-6.44Z"/>
        <path class="cls-17" d="m153.06,627.61c3.55,0,6.43,2.88,6.43,6.44,0,3.55-2.88,6.43-6.43,6.43s-6.43-2.88-6.43-6.43c0-3.55,2.88-6.44,6.43-6.44Z"/>
        <path class="cls-17" d="m119.9,627.61c3.55,0,6.43,2.88,6.43,6.44s-2.88,6.43-6.43,6.43-6.43-2.88-6.43-6.43c0-3.55,2.88-6.44,6.43-6.44Z"/>
        <path class="cls-17" d="m335.44,649.73c3.55,0,6.43,2.88,6.43,6.43,0,3.55-2.88,6.44-6.43,6.44s-6.43-2.88-6.43-6.44c0-3.55,2.88-6.43,6.43-6.43Z"/>
        <path class="cls-17" d="m302.28,649.73c3.55,0,6.43,2.88,6.43,6.43,0,3.55-2.88,6.44-6.43,6.44s-6.43-2.88-6.43-6.44,2.88-6.43,6.43-6.43Z"/>
        <path class="cls-17" d="m269.12,649.73c3.55,0,6.43,2.88,6.43,6.43,0,3.55-2.88,6.44-6.43,6.44s-6.43-2.88-6.43-6.44,2.88-6.43,6.43-6.43Z"/>
        <path class="cls-17" d="m235.96,649.73c3.55,0,6.43,2.88,6.43,6.43s-2.88,6.44-6.43,6.44-6.43-2.88-6.43-6.44,2.88-6.43,6.43-6.43Z"/>
        <path class="cls-17" d="m202.8,649.73c3.55,0,6.43,2.88,6.43,6.43,0,3.55-2.88,6.44-6.43,6.44s-6.44-2.88-6.44-6.44c0-3.55,2.88-6.43,6.44-6.43Z"/>
        <path class="cls-17" d="m169.64,649.73c3.55,0,6.43,2.88,6.43,6.43s-2.88,6.44-6.43,6.44c-3.55,0-6.43-2.88-6.43-6.44,0-3.55,2.88-6.43,6.43-6.43Z"/>
        <path class="cls-17" d="m136.48,649.73c3.55,0,6.43,2.88,6.43,6.43s-2.88,6.44-6.43,6.44c-3.55,0-6.43-2.88-6.43-6.44,0-3.55,2.88-6.43,6.43-6.43Z"/>
        <path class="cls-17" d="m103.32,649.73c3.55,0,6.43,2.88,6.43,6.43,0,3.55-2.88,6.44-6.43,6.44s-6.43-2.88-6.43-6.44c0-3.55,2.88-6.43,6.43-6.43Z"/>
        <path class="cls-17" d="m352.02,675.18c3.55,0,6.43,2.88,6.43,6.43s-2.88,6.44-6.43,6.44-6.43-2.88-6.43-6.44,2.88-6.43,6.43-6.43Z"/>
        <path class="cls-17" d="m318.86,675.18c3.55,0,6.43,2.88,6.43,6.43s-2.88,6.44-6.43,6.44-6.43-2.88-6.43-6.44,2.88-6.43,6.43-6.43Z"/>
        <path class="cls-17" d="m285.7,675.18c3.55,0,6.43,2.88,6.43,6.43,0,3.55-2.88,6.44-6.43,6.44-3.55,0-6.43-2.88-6.43-6.44s2.88-6.43,6.43-6.43Z"/>
        <path class="cls-17" d="m252.54,675.18c3.55,0,6.43,2.88,6.43,6.43,0,3.55-2.88,6.44-6.43,6.44-3.55,0-6.43-2.88-6.43-6.44s2.88-6.43,6.43-6.43Z"/>
        <path class="cls-17" d="m219.38,675.18c3.55,0,6.44,2.88,6.44,6.43s-2.88,6.44-6.44,6.44c-3.55,0-6.43-2.88-6.43-6.44,0-3.55,2.88-6.43,6.43-6.43Z"/>
        <path class="cls-17" d="m186.22,675.18c3.55,0,6.43,2.88,6.43,6.43,0,3.55-2.88,6.44-6.43,6.44-3.55,0-6.43-2.88-6.43-6.44,0-3.55,2.88-6.43,6.43-6.43Z"/>
        <path class="cls-17" d="m153.06,675.18c3.55,0,6.43,2.88,6.43,6.43s-2.88,6.44-6.43,6.44-6.43-2.88-6.43-6.44,2.88-6.43,6.43-6.43Z"/>
        <path class="cls-17" d="m119.9,675.18c3.55,0,6.43,2.88,6.43,6.43,0,3.55-2.88,6.44-6.43,6.44s-6.43-2.88-6.43-6.44,2.88-6.43,6.43-6.43Z"/>
        <circle class="cls-17" cx="335.44" cy="703.74" r="6.43"/>
        <circle class="cls-17" cx="302.28" cy="703.74" r="6.43"/>
        <circle class="cls-17" cx="269.12" cy="703.74" r="6.43"/>
        <circle class="cls-17" cx="235.96" cy="703.74" r="6.43"/>
        <path class="cls-17" d="m202.8,697.3c3.55,0,6.43,2.88,6.43,6.43s-2.88,6.43-6.43,6.43c-3.55,0-6.44-2.88-6.44-6.43,0-3.55,2.88-6.43,6.44-6.43Z"/>
        <circle class="cls-17" cx="169.64" cy="703.74" r="6.43"/>
        <circle class="cls-17" cx="136.48" cy="703.74" r="6.43"/>
        <circle class="cls-17" cx="103.32" cy="703.74" r="6.43"/>
        <circle class="cls-17" cx="352.02" cy="729.18" r="6.43"/>
        <circle class="cls-17" cx="318.86" cy="729.18" r="6.43"/>
        <circle class="cls-17" cx="285.7" cy="729.18" r="6.43"/>
        <circle class="cls-17" cx="252.54" cy="729.18" r="6.43"/>
        <path class="cls-17" d="m219.38,722.75c3.55,0,6.44,2.88,6.44,6.43s-2.88,6.43-6.44,6.43-6.43-2.88-6.43-6.43c0-3.55,2.88-6.43,6.43-6.43Z"/>
        <circle class="cls-17" cx="186.22" cy="729.18" r="6.43"/>
        <circle class="cls-17" cx="153.06" cy="729.18" r="6.43"/>
        <circle class="cls-17" cx="119.9" cy="729.18" r="6.43"/>
        <path class="cls-17" d="m335.44,744.87c3.55,0,6.43,2.88,6.43,6.44s-2.88,6.43-6.43,6.43-6.43-2.88-6.43-6.43c0-3.55,2.88-6.44,6.43-6.44Z"/>
        <path class="cls-17" d="m302.28,744.87c3.55,0,6.43,2.88,6.43,6.44s-2.88,6.43-6.43,6.43-6.43-2.88-6.43-6.43c0-3.55,2.88-6.44,6.43-6.44Z"/>
        <path class="cls-17" d="m269.12,744.87c3.55,0,6.43,2.88,6.43,6.44,0,3.55-2.88,6.43-6.43,6.43s-6.43-2.88-6.43-6.43,2.88-6.44,6.43-6.44Z"/>
        <path class="cls-17" d="m235.96,744.87c3.55,0,6.43,2.88,6.43,6.44,0,3.55-2.88,6.43-6.43,6.43s-6.43-2.88-6.43-6.43,2.88-6.44,6.43-6.44Z"/>
        <path class="cls-17" d="m202.8,744.87c3.55,0,6.43,2.88,6.43,6.44,0,3.55-2.88,6.43-6.43,6.43s-6.44-2.88-6.44-6.43c0-3.55,2.88-6.44,6.44-6.44Z"/>
        <path class="cls-17" d="m169.64,744.87c3.55,0,6.43,2.88,6.43,6.44s-2.88,6.43-6.43,6.43-6.43-2.88-6.43-6.43c0-3.55,2.88-6.44,6.43-6.44Z"/>
        <path class="cls-17" d="m136.48,744.87c3.55,0,6.43,2.88,6.43,6.44s-2.88,6.43-6.43,6.43c-3.55,0-6.43-2.88-6.43-6.43,0-3.55,2.88-6.44,6.43-6.44Z"/>
        <path class="cls-17" d="m103.32,744.87c3.55,0,6.43,2.88,6.43,6.44,0,3.55-2.88,6.43-6.43,6.43s-6.43-2.88-6.43-6.43,2.88-6.44,6.43-6.44Z"/>
        <path class="cls-17" d="m352.02,770.32c3.55,0,6.43,2.88,6.43,6.44s-2.88,6.43-6.43,6.43c-3.55,0-6.43-2.88-6.43-6.43s2.88-6.44,6.43-6.44Z"/>
        <path class="cls-17" d="m318.86,770.32c3.55,0,6.43,2.88,6.43,6.44s-2.88,6.43-6.43,6.43c-3.55,0-6.43-2.88-6.43-6.43s2.88-6.44,6.43-6.44Z"/>
        <path class="cls-17" d="m285.7,770.32c3.55,0,6.43,2.88,6.43,6.44s-2.88,6.43-6.43,6.43-6.43-2.88-6.43-6.43,2.88-6.44,6.43-6.44Z"/>
        <path class="cls-17" d="m252.54,770.32c3.55,0,6.43,2.88,6.43,6.44s-2.88,6.43-6.43,6.43-6.43-2.88-6.43-6.43,2.88-6.44,6.43-6.44Z"/>
        <path class="cls-17" d="m219.38,770.32c3.55,0,6.44,2.88,6.44,6.44s-2.88,6.43-6.44,6.43-6.43-2.88-6.43-6.43,2.88-6.44,6.43-6.44Z"/>
        <path class="cls-17" d="m186.22,770.32c3.55,0,6.43,2.88,6.43,6.44s-2.88,6.43-6.43,6.43-6.43-2.88-6.43-6.43,2.88-6.44,6.43-6.44Z"/>
        <path class="cls-17" d="m153.06,770.32c3.55,0,6.43,2.88,6.43,6.44s-2.88,6.43-6.43,6.43-6.43-2.88-6.43-6.43,2.88-6.44,6.43-6.44Z"/>
        <path class="cls-17" d="m119.9,770.32c3.55,0,6.43,2.88,6.43,6.44s-2.88,6.43-6.43,6.43c-3.55,0-6.43-2.88-6.43-6.43s2.88-6.44,6.43-6.44Z"/>
        <circle class="cls-17" cx="335.44" cy="798.88" r="6.43"/>
        <circle class="cls-17" cx="302.28" cy="798.88" r="6.43"/>
        <circle class="cls-17" cx="269.12" cy="798.88" r="6.43"/>
        <circle class="cls-17" cx="235.96" cy="798.88" r="6.43"/>
        <path class="cls-17" d="m202.8,792.44c3.55,0,6.43,2.88,6.43,6.43,0,3.55-2.88,6.43-6.43,6.43-3.55,0-6.44-2.88-6.44-6.43,0-3.55,2.88-6.43,6.44-6.43Z"/>
        <circle class="cls-17" cx="169.64" cy="798.88" r="6.43"/>
        <circle class="cls-17" cx="136.48" cy="798.88" r="6.43"/>
        <circle class="cls-17" cx="103.32" cy="798.88" r="6.43"/>
        <circle class="cls-17" cx="352.02" cy="824.32" r="6.43"/>
        <circle class="cls-17" cx="318.86" cy="824.32" r="6.43"/>
        <circle class="cls-17" cx="285.7" cy="824.32" r="6.43"/>
        <circle class="cls-17" cx="252.54" cy="824.32" r="6.43"/>
        <path class="cls-17" d="m219.38,817.89c3.55,0,6.44,2.88,6.44,6.43s-2.88,6.43-6.44,6.43-6.43-2.88-6.43-6.43c0-3.55,2.88-6.43,6.43-6.43Z"/>
        <circle class="cls-17" cx="186.22" cy="824.32" r="6.43"/>
        <circle class="cls-17" cx="153.06" cy="824.32" r="6.43"/>
        <circle class="cls-17" cx="119.9" cy="824.32" r="6.43"/>
        <path class="cls-17" d="m335.44,840.01c3.55,0,6.43,2.88,6.43,6.43,0,3.55-2.88,6.44-6.43,6.44s-6.43-2.88-6.43-6.44,2.88-6.43,6.43-6.43Z"/>
        <path class="cls-17" d="m302.28,840.01c3.55,0,6.43,2.88,6.43,6.43s-2.88,6.44-6.43,6.44-6.43-2.88-6.43-6.44c0-3.55,2.88-6.43,6.43-6.43Z"/>
        <path class="cls-17" d="m269.12,840.01c3.55,0,6.43,2.88,6.43,6.43s-2.88,6.44-6.43,6.44-6.43-2.88-6.43-6.44,2.88-6.43,6.43-6.43Z"/>
        <path class="cls-17" d="m235.96,840.01c3.55,0,6.43,2.88,6.43,6.43,0,3.55-2.88,6.44-6.43,6.44-3.55,0-6.43-2.88-6.43-6.44,0-3.55,2.88-6.43,6.43-6.43Z"/>
        <path class="cls-17" d="m202.8,840.01c3.55,0,6.43,2.88,6.43,6.43s-2.88,6.44-6.43,6.44-6.44-2.88-6.44-6.44,2.88-6.43,6.44-6.43Z"/>
        <path class="cls-17" d="m169.64,840.01c3.55,0,6.43,2.88,6.43,6.43,0,3.55-2.88,6.44-6.43,6.44s-6.43-2.88-6.43-6.44,2.88-6.43,6.43-6.43Z"/>
        <path class="cls-17" d="m136.48,840.01c3.55,0,6.43,2.88,6.43,6.43,0,3.55-2.88,6.44-6.43,6.44s-6.43-2.88-6.43-6.44c0-3.55,2.88-6.43,6.43-6.43Z"/>
        <path class="cls-17" d="m103.32,840.01c3.55,0,6.43,2.88,6.43,6.43s-2.88,6.44-6.43,6.44-6.43-2.88-6.43-6.44c0-3.55,2.88-6.43,6.43-6.43Z"/>
        <path class="cls-17" d="m352.02,865.46c3.55,0,6.43,2.88,6.43,6.43s-2.88,6.44-6.43,6.44-6.43-2.88-6.43-6.44,2.88-6.43,6.43-6.43Z"/>
        <path class="cls-17" d="m318.86,865.46c3.55,0,6.43,2.88,6.43,6.43s-2.88,6.44-6.43,6.44-6.43-2.88-6.43-6.44,2.88-6.43,6.43-6.43Z"/>
        <path class="cls-17" d="m285.7,865.46c3.55,0,6.43,2.88,6.43,6.43s-2.88,6.44-6.43,6.44-6.43-2.88-6.43-6.44,2.88-6.43,6.43-6.43Z"/>
        <path class="cls-17" d="m252.54,865.46c3.55,0,6.43,2.88,6.43,6.43s-2.88,6.44-6.43,6.44c-3.55,0-6.43-2.88-6.43-6.44s2.88-6.43,6.43-6.43Z"/>
        <path class="cls-17" d="m219.38,865.46c3.55,0,6.44,2.88,6.44,6.43s-2.88,6.44-6.44,6.44c-3.55,0-6.43-2.88-6.43-6.44s2.88-6.43,6.43-6.43Z"/>
        <path class="cls-17" d="m186.22,865.46c3.55,0,6.43,2.88,6.43,6.43s-2.88,6.44-6.43,6.44c-3.55,0-6.43-2.88-6.43-6.44s2.88-6.43,6.43-6.43Z"/>
        <path class="cls-17" d="m153.06,865.46c3.55,0,6.43,2.88,6.43,6.43s-2.88,6.44-6.43,6.44c-3.55,0-6.43-2.88-6.43-6.44s2.88-6.43,6.43-6.43Z"/>
        <path class="cls-17" d="m119.9,865.46c3.55,0,6.43,2.88,6.43,6.43s-2.88,6.44-6.43,6.44-6.43-2.88-6.43-6.44,2.88-6.43,6.43-6.43Z"/>
        <path class="cls-17" d="m335.44,887.58c3.55,0,6.43,2.88,6.43,6.44,0,3.55-2.88,6.43-6.43,6.43-3.55,0-6.43-2.88-6.43-6.43,0-3.55,2.88-6.44,6.43-6.44Z"/>
        <path class="cls-17" d="m302.28,887.58c3.55,0,6.43,2.88,6.43,6.44,0,3.55-2.88,6.43-6.43,6.43-3.55,0-6.43-2.88-6.43-6.43s2.88-6.44,6.43-6.44Z"/>
        <path class="cls-17" d="m269.12,887.58c3.55,0,6.43,2.88,6.43,6.44,0,3.55-2.88,6.43-6.43,6.43-3.55,0-6.43-2.88-6.43-6.43s2.88-6.44,6.43-6.44Z"/>
        <path class="cls-17" d="m235.96,887.58c3.55,0,6.43,2.88,6.43,6.44,0,3.55-2.88,6.43-6.43,6.43s-6.43-2.88-6.43-6.43,2.88-6.44,6.43-6.44Z"/>
        <path class="cls-17" d="m202.8,887.58c3.55,0,6.43,2.88,6.43,6.44,0,3.55-2.88,6.43-6.43,6.43s-6.44-2.88-6.44-6.43c0-3.55,2.88-6.44,6.44-6.44Z"/>
        <path class="cls-17" d="m169.64,887.58c3.55,0,6.43,2.88,6.43,6.44s-2.88,6.43-6.43,6.43-6.43-2.88-6.43-6.43c0-3.55,2.88-6.44,6.43-6.44Z"/>
        <path class="cls-17" d="m136.48,887.58c3.55,0,6.43,2.88,6.43,6.44s-2.88,6.43-6.43,6.43c-3.55,0-6.43-2.88-6.43-6.43,0-3.55,2.88-6.44,6.43-6.44Z"/>
        <path class="cls-17" d="m103.32,887.58c3.55,0,6.43,2.88,6.43,6.44,0,3.55-2.88,6.43-6.43,6.43-3.55,0-6.43-2.88-6.43-6.43,0-3.55,2.88-6.44,6.43-6.44Z"/>
        <circle class="cls-17" cx="352.02" cy="919.46" r="6.43"/>
        <circle class="cls-17" cx="318.86" cy="919.46" r="6.43"/>
        <circle class="cls-17" cx="285.7" cy="919.46" r="6.43"/>
        <circle class="cls-17" cx="252.54" cy="919.46" r="6.43"/>
        <path class="cls-17" d="m219.38,913.03c3.55,0,6.44,2.88,6.44,6.43,0,3.55-2.88,6.43-6.44,6.43-3.55,0-6.43-2.88-6.43-6.43s2.88-6.43,6.43-6.43Z"/>
        <circle class="cls-17" cx="186.22" cy="919.46" r="6.43"/>
        <circle class="cls-17" cx="153.06" cy="919.46" r="6.43"/>
        <circle class="cls-17" cx="119.9" cy="919.46" r="6.43"/>
        <circle class="cls-17" cx="335.44" cy="941.59" r="6.43"/>
        <circle class="cls-17" cx="302.28" cy="941.59" r="6.43"/>
        <circle class="cls-17" cx="269.12" cy="941.59" r="6.43"/>
        <circle class="cls-17" cx="235.96" cy="941.59" r="6.43"/>
        <path class="cls-17" d="m202.8,935.15c3.55,0,6.43,2.88,6.43,6.43s-2.88,6.43-6.43,6.43-6.44-2.88-6.44-6.43,2.88-6.43,6.44-6.43Z"/>
        <circle class="cls-17" cx="169.64" cy="941.59" r="6.43"/>
        <circle class="cls-17" cx="136.48" cy="941.59" r="6.43"/>
        <circle class="cls-17" cx="103.32" cy="941.59" r="6.43"/>
      </g>
    </g>
    <path class="cls-16" d="m197.23,345.77c-14.87,4.63-25.04,22.43-28.64,36.92-4.06,16.34-1.98,33.79,3.61,49.67,5.86,16.65,14.48,31.51,13.91,49.46-.6,18.92-2.12,38.81-.51,57.71.16,1.84.42,3.81,1.64,5.19.98,1.11,2.44,1.67,3.83,2.17,32.29,11.5,68.08,12.97,101.21,4.17,1.4-.37,2.88-.81,3.88-1.85,1.24-1.29,1.49-3.2,1.68-4.98,1.46-13.97,2.98-28.3,3.35-42.33.33-12.54-2.03-22.58,2.06-35.12,3.68-11.3,8.85-22.56,8.33-34.44-.81-18.63-15.13-33.55-22.35-50.75-3.08-7.34-4.9-15.21-8.57-22.27-13.22-25.45-56.27-17.84-79.56-14.44-1.32.19-2.61.49-3.87.88Z"/>
    <path class="cls-6" d="m180.86,277.82c-.37-1.44-.59-2.94-1.28-4.26-.92-1.75-2.58-2.97-3.87-4.47-3.18-3.7-3.97-8.98-3.21-13.8s2.87-9.29,4.97-13.7c2.21-4.64,4.42-9.29,6.63-13.93,4.3-9.05,10.24-19.31,20.2-20.37,1.86-.2,3.85-.07,5.47-1,1.62-.93,2.41-3.55.88-4.62,15.59-6.53,35.48-.08,44.28,14.34,1.7-3.98,7.85-3.82,11.08-.94s4.52,7.29,6.42,11.18c.54,1.11,1.18,2.23,2.22,2.91.77.5,1.68.7,2.52,1.05,6.1,2.51,6.5,10.89,5.65,17.42-1.42,10.9-3.49,21.71-6.22,32.35-1.73,6.77-4.24,14.15-10.34,17.56-5.21,2.92-11.59,2.12-17.56,2.25-6.56.15-13.04,1.51-19.59,1.8-15.43.68-43.74-6.15-48.25-23.78Z"/>
    <path class="cls-11" d="m260.56,231.88c-.8-.9-1.67-1.78-2.79-2.21-1.86-.71-4.05.02-5.51,1.38s-2.35,3.22-3.07,5.08c-1.3,3.36-2.19,6.93-1.99,10.52.2,3.59,1.6,7.21,4.3,9.59,2.7,2.38,6.78,3.29,10.04,1.76,2.88-1.35,4.73-4.34,5.47-7.44,1.77-7.44-1.59-13.21-6.44-18.68Z"/>
    <path class="cls-11" d="m266.38,291.19c-3.57,14.46-9.56,28.56-19.29,39.83-3.82,4.42-8.42,8.5-14.07,9.97-6.57,1.71-13.71-.45-19.19-4.44-5.48-4-9.53-9.66-12.95-15.52-13.78-23.6-18.75-52.22-13.73-79.09.39-2.09.86-4.22,1.99-6.02.97-1.55,2.38-2.77,3.87-3.83,10.07-7.08,23.5-6.59,35.69-4.92,13.28,1.82,32.01,5.1,41.15,16.14,4.52,5.45,1.81,13.9,1.09,20.5-1.01,9.2-2.34,18.38-4.56,27.37Z"/>
    <path class="cls-11" d="m277.18,285.73c-.35,5.15-2.09,10.16-4.9,14.17-.7.99-1.47,1.94-2.35,2.71-.52.46-1.08.87-1.67,1.19-1.6.86-3.52,1.07-5.11.19-2.57-1.41-3.56-5.13-3.48-8.42.24-10.05,18.48-24.03,17.51-9.84Z"/>
    <path class="cls-11" d="m249.76,351.31c-1.38,4.1-5.78,6.32-9.93,7.5-5.44,1.54-11.19,2.01-16.81,1.39-6.77-.75-14.41-4.28-15.49-11.01-.7-4.36,1.63-8.57,2.63-12.87,2.56-10.99-3.58-22.87-.08-33.59,4.46-13.65,22.39-17.57,32.79-8.03,7.49,6.87,3.83,19.19,3.79,28.06-.02,4.59.32,9.17,1.16,13.69s3.53,10.14,1.94,14.86Z"/>
    <path class="cls-1" d="m237.58,310.05c-1.01,2.12-2.05,4.28-3.73,5.91-1.75,1.69-4.09,2.67-6.49,3.09s-4.85.29-7.27-.02c-1.4-.18-4.88-.79-3.49-2.57.8-1.03,5.56-1.14,6.88-1.46,4.86-1.15,9.59-2.81,14.1-4.95Z"/>
    <path class="cls-6" d="m214.79,249.03c-1.58,2.07-3.19,4.22-3.8,6.75-.61,2.53.07,5.56,2.27,6.95,2.89,1.81,6.6.09,9.61-1.52,6.56-3.51,13.4-6.5,20.43-8.92-1.15,3.01-2.32,6.16-1.99,9.37.34,3.21,2.71,6.45,5.93,6.62,4.72.25,9.07-5.78,13.2-3.49,2.02,1.12,2.6,3.69,3.54,5.8.94,2.12,3.29,4.21,5.32,3.1,1.18-.64,1.63-2.09,1.97-3.39,1.69-6.43,3.39-12.95,3.35-19.6-.04-6.65-2.02-13.55-6.76-18.22-3.92-3.86-9.3-5.83-14.63-7.17-9.28-2.32-18.89-3.02-28.45-3.44-10.85-.47-22.73-.25-31.15,6.61-5.5,4.49-8.53,11.15-10.13,17.93-1.09,4.6-4.15,18.81.05,22.33,4.92,4.11,10.29-5.7,12.98-8.39,2.55-2.56,5.4-4.83,8.46-6.74,2.15-1.34,8.45-2.86,9.78-4.6Z"/>
    <path class="cls-16" d="m47.62,327.91c22.7,12.08,48.68,18.94,74.3,22.68,14.25,2.08,28.79,3.34,43.19,2.26,9.54-.72,24.86-7.9,34.2-5.25,20.76,5.88,21.78,42.9,12.53,57.95-11.07,18.02-34.86,24.15-55.93,22.3-33.44-2.94-63.88-21.77-87.27-45.85-11.24-11.57-21.05-24.34-30.12-37.68,3.22-5.35,6.25-10.83,9.1-16.41Z"/>
    <path class="cls-15" d="m207.72,516.18c.5,0,1.01,0,1.51,0"/>
    <path class="cls-12" d="m208.5,287.23c-.1-.23-.24-.45-.38-.59-.3-.3-.8-.53-1.23-.51-.45.02-.92.17-1.23.51-.33.36-.45.74-.51,1.23-.14,1.18-.02,2.42.31,3.56.37,1.28,1.01,2.41,1.83,3.45.37.47,1.15.6,1.69.45.59-.16,1.04-.63,1.21-1.21.7-2.37,0-5.08-1.7-6.88Z"/>
    <path class="cls-12" d="m240.76,287.01c0-.62,0-1.29-.18-1.88-.26-.84-.87-1.65-1.76-1.88-.85-.21-1.76.04-2.38.66-.62.62-.84,1.66-.41,2.45-.1,2.05.01,4.1.32,6.13.06.39.46.86.8,1.04.44.23.85.24,1.34.18,1.5-.21,2.11-1.8,2.25-3.1.12-1.18.04-2.41.02-3.59Z"/>
  </g>
  <g>
    <g>
      <path class="cls-11" d="m1245.92,78.31c.23-1.08.68-2.23,1.65-2.77,1.54-.86,3.51.28,4.47,1.77.96,1.48,1.36,3.29,2.38,4.73.31.44.77.87,1.29.77.55-.11.8-.73.96-1.26,2.26-7.82,2.54-16.72,6.78-23.39,1.09-1.72,3.81-1.11,4.14.9.84,5.03-1.8,11.55,1.5,15.68,1.79-3.67,2.66-7.72,4.13-11.54s3.73-7.58,7.35-9.48c.4-.21.83-.4,1.28-.36,1.18.11,1.63,1.61,1.6,2.8-.15,6.98-6.2,13.18-5.09,20.07,2.16-2.65,4.32-5.29,6.48-7.94,2.28-2.79,4.92-5.76,8.13-7.07,1.74-.71,3.54.88,3.11,2.71-.75,3.14-2.88,6.03-5.18,8.41-3.11,3.22-6.75,6.1-8.72,10.11,4.24-3,8.48-6.01,12.73-9.01.66-.47,1.46-.95,2.21-.67.58.22.91.82,1.09,1.42.86,2.89-.93,5.96-3.21,7.93s-5.09,3.27-7.33,5.29c-3.13,2.82-4.9,6.8-7.12,10.38-2.21,3.58-5.3,7.08-9.46,7.8-2.17.37-4.62,0-6.38,1.33-1.06.79-1.64,2.05-2.25,3.22-1.55,2.95-3.67,5.75-6.63,7.26-3.71,1.89-9.07,1.23-10.72-3.03-1.5-3.88,1.46-5.37,2.96-8.45,4.52-9.21-4.1-18.29-2.14-27.57Z"/>
      <path class="cls-11" d="m716.13,390.58c-1.25.24-2.58.73-3.22,1.83-1.03,1.75.24,4.05,1.92,5.19,1.68,1.14,3.75,1.65,5.39,2.85.49.36.98.91.85,1.51-.14.63-.86.91-1.48,1.07-9.05,2.4-19.31,2.5-27.08,7.21-2,1.21-1.37,4.35.93,4.79,5.77,1.1,13.33-1.78,18,2.12-4.27,1.97-8.95,2.87-13.38,4.46-4.43,1.59-8.82,4.1-11.1,8.22-.25.45-.48.95-.44,1.46.09,1.36,1.81,1.91,3.18,1.91,8.03,0,15.31-6.8,23.21-5.35-3.1,2.42-6.2,4.84-9.29,7.25-3.26,2.55-6.75,5.51-8.34,9.17-.86,1.99.92,4.1,3.04,3.64,3.63-.79,7-3.16,9.8-5.74,3.78-3.5,7.18-7.61,11.85-9.78-3.56,4.8-7.13,9.61-10.69,14.41-.55.74-1.13,1.66-.83,2.53.23.67.93,1.07,1.6,1.29,3.3,1.06,6.88-.92,9.2-3.5,2.32-2.58,3.89-5.78,6.27-8.3,3.32-3.53,7.94-5.47,12.12-7.93,4.18-2.46,8.28-5.92,9.21-10.68.49-2.49.12-5.31,1.69-7.31.94-1.2,2.4-1.83,3.76-2.51,3.43-1.71,6.7-4.07,8.52-7.45,2.26-4.22,1.64-10.41-3.22-12.41-4.43-1.83-6.22,1.54-9.79,3.2-10.71,4.96-20.94-5.18-31.66-3.16Z"/>
      <path class="cls-6" d="m953.18,902.31c8.03.49,16.06.96,24.09,1.4-.37-124.18,23.56-248.44,47.47-370.76,2.46,32.75,4.84,65.48,6.16,98.29,2.29,56.6,1.46,113.33.63,169.99-.51,35.08-1.03,70.14-1.56,105.2,5.54.27,11.08.54,16.62.81,12.19-75.03,29.17-149.2,40.1-224.44,11.63-80.13,16.27-162.4.69-241.79-42.78-5.25-86.24-4.45-128.85,2.34-.26.03-.52.09-.8.12-37.91,117.04-35.56,244.55-20.06,367.13,3.88,30.73,8.7,61.51,15.51,91.71Z"/>
      <path class="cls-6" d="m975.11,121.18c-2.29-4.34-1.65-9.82-1.26-14.54.41-4.95-1.93-7.58-5.97-10.37-2.77-1.92-5.64-3.75-8.05-6.1-2.41-2.36-4.36-5.35-4.81-8.69-.46-3.43.73-6.93,2.71-9.77,1.98-2.84,4.69-5.09,7.52-7.07,3.67-2.56,7.76-4.8,12.22-5.15,2.33-.18,4.71.17,7.01-.3,2.66-.54,4.97-2.13,7.19-3.69,5.07-3.54,9.74-7.36,15.78-9.03,3.41-.94,7.02-1,10.55-.67,6.93.66,13.9,2.97,19.07,7.63.82.74,1.72,1.59,2.82,1.56.78-.02,1.47-.48,2.14-.89,8.42-5.21,20.19-4.22,27.63,2.31,4.42,3.88,7.24,9.34,8.82,15.01,4.7,16.89-1.12,35.19-10.73,49.85-1.92,2.93-4.05,5.82-6.92,7.85-3.17,2.24-7.02,3.26-10.78,4.24-13.91,3.64-28.27,6.67-41.67-.17-5.74-2.93-10.25-3.69-16.55-3.98-6.24-.29-13.56-2.04-16.72-8.05Z"/>
      <path class="cls-11" d="m980.76,133.86c3.57,14.46,9.56,28.56,19.29,39.83,3.82,4.42,8.42,8.5,14.07,9.97,6.57,1.71,13.71-.45,19.19-4.44,5.48-4,9.53-9.66,12.95-15.52,13.78-23.6,18.75-52.22,13.73-79.09-.39-2.09-.86-4.22-1.99-6.02-.97-1.55-2.38-2.77-3.87-3.83-10.07-7.08-23.5-6.59-35.69-4.92-13.28,1.82-32.01,5.1-41.15,16.14-4.52,5.45-1.81,13.9-1.09,20.5,1.01,9.2,2.34,18.38,4.56,27.37Z"/>
      <path class="cls-12" d="m998.63,119.41c-.29-.63-.73-1.22-1.22-1.71-.61-.6-1.3-.99-2.09-1.31-.39-.16-.99-.03-1.34.18-.36.21-.7.62-.8,1.04-.07.33-.04.67.06,1-.25.21-.46.47-.59.77-.4.95,0,2.12.48,2.98.75,1.38,2.2,2.5,3.76,2.77.45.08.93.09,1.34-.18.39-.25.65-.59.8-1.04.49-1.5.25-3.1-.4-4.51Z"/>
      <path class="cls-12" d="m1032.59,114.79c-.51-1.05-1.31-2.21-2.36-2.77-.83-.44-1.81-.5-2.65-.05-.81.43-1.34,1.26-1.34,2.19,0,.43.19.84.47,1.16.09,2.77,1.38,5.56,3.58,7.26.51.39,1.03.63,1.69.45.6-.17,1.03-.63,1.21-1.21.73-2.32.46-4.85-.61-7.02Z"/>
      <path class="cls-1" d="m1010.7,154.08c1.7.74,3.67.24,5.45-.29,5.53-1.64,11.54-3.85,14.28-8.92-4.24,2.12-9.01,2.14-13.64,2.08-3.52-.05-10.1-1.24-12.77,1.07,2.44,1.61,4.02,4.9,6.69,6.06Z"/>
      <path class="cls-6" d="m989.82,92.56c12.31-4.38,23.75-11.16,33.5-19.85,5.44,10.34,15.76,17.99,27.23,20.19,1.41.27,2.96.53,3.89,1.63.92,1.1.91,2.67.93,4.1.06,4.93,1,9.85,2.76,14.46.47,1.24,1.31,2.67,2.64,2.62,1.57-.06,2.19-2.03,2.38-3.58.99-7.85,1.98-15.79.96-23.64s-4.28-15.7-10.43-20.67c-6.8-5.5-16.1-6.75-24.84-6.47-16.32.52-32.25,5.62-46.83,12.96-5.42,2.73-14.52,8.68-11.28,16.15,3.01,6.92,13.86,3.96,19.09,2.1Z"/>
      <g class="cls-8">
        <path class="cls-2" d="m1244.91,99.8c-10.6,17.91-23.93,34.19-39.26,48.25-16.87,15.47-36.17,28.32-56.99,37.82-9.33,4.26-19.84,9.3-30.11,10.48-11.89,1.37-23.9,2.02-35.85,1.02-14.32-1.21-27.95-8.02-42.16-10.6-41.77-7.58-95.31,4.62-122.44,39.9-7.81,10.16-17.63,19.3-26.33,28.71-8.65,9.37-17.36,18.68-26.18,27.89-37.96,39.58-78.46,77.5-125.3,106.45l-.12.4c3.81,7.85,7.82,15.58,12.05,23.19,11.68-1.76,23.22-4.62,34.36-8.48,22.68-7.86,42.37-20.96,64.65-30.32,23.64-9.94,46.5-22.02,66.92-37.53,4.71-3.58,9.27-7.39,13.62-11.4.05,4.59.09,9.17.14,13.76.23,21.86-.19,43.73.62,65.59.8,21.62,3.59,43,6.64,64.35.1.72.26,1.51.84,1.95.42.32.98.37,1.51.42,20.94,1.71,41.97-.43,62.95-1.45,15.89-.77,31.81-.89,47.72-1.02,9.48-.07,18.96-.15,28.45-.22,4.88-.04,9.75-.08,14.63-.11,4.05-.03,6.33.44,6.53-4.3,2.41-58.04,2.78-115.94,2.82-173.98,13.61-1.98,26.96-5.04,39.56-10.5,29.85-12.93,52.78-38,71.46-64.63,21.74-31,39.08-66.58,46.98-103.41-5.97-3.97-11.87-8.05-17.7-12.23Z"/>
        <g>
          <path class="cls-14" d="m930.15,10.53c-.6-1.44-2.26-2.13-3.7-1.53l-12.43,5.17-5.17-12.43c-.6-1.44-2.26-2.13-3.7-1.53-1.44.6-2.13,2.26-1.53,3.7l5.17,12.43-12.43,5.17c-1.44.6-2.13,2.26-1.53,3.7.6,1.44,2.26,2.13,3.7,1.53l12.43-5.17,5.17,12.43c.6,1.44,2.26,2.13,3.7,1.53,1.44-.6,2.13-2.26,1.53-3.7l-5.17-12.43,12.43-5.17c1.44-.6,2.13-2.26,1.53-3.7Z"/>
          <path class="cls-14" d="m992.98,36.44c-.6-1.44-2.26-2.13-3.7-1.53l-12.43,5.17-5.17-12.43c-.6-1.44-2.26-2.13-3.7-1.53-1.44.6-2.13,2.26-1.53,3.7l5.17,12.43-12.43,5.17c-1.44.6-2.13,2.26-1.53,3.7.6,1.44,2.26,2.13,3.7,1.53l12.43-5.17,5.17,12.43c.6,1.44,2.26,2.13,3.7,1.53,1.44-.6,2.13-2.26,1.53-3.7l-5.17-12.43,12.43-5.17c1.44-.6,2.13-2.26,1.53-3.7Z"/>
          <path class="cls-14" d="m1055.82,62.36c-.6-1.44-2.26-2.13-3.7-1.53l-12.43,5.17-5.17-12.43c-.6-1.44-2.26-2.13-3.7-1.53-1.44.6-2.13,2.26-1.53,3.7l5.17,12.43-12.43,5.17c-1.44.6-2.13,2.26-1.53,3.7.6,1.44,2.26,2.13,3.7,1.53l12.43-5.17,5.17,12.43c.6,1.44,2.26,2.13,3.7,1.53s2.13-2.26,1.53-3.7l-5.17-12.43,12.43-5.17c1.44-.6,2.13-2.26,1.53-3.7Z"/>
          <path class="cls-14" d="m1118.66,88.27c-.6-1.44-2.26-2.13-3.7-1.53l-12.43,5.17-5.17-12.43c-.6-1.44-2.26-2.13-3.7-1.53-1.44.6-2.13,2.26-1.53,3.7l5.17,12.43-12.43,5.17c-1.44.6-2.13,2.26-1.53,3.7.6,1.44,2.26,2.13,3.7,1.53l12.43-5.17,5.17,12.43c.6,1.44,2.26,2.13,3.7,1.53,1.44-.6,2.13-2.26,1.53-3.7l-5.17-12.43,12.43-5.17c1.44-.6,2.13-2.26,1.53-3.7Z"/>
          <path class="cls-14" d="m1181.49,114.18c-.6-1.44-2.26-2.13-3.7-1.53l-12.43,5.17-5.17-12.43c-.6-1.44-2.26-2.13-3.7-1.53-1.44.6-2.13,2.26-1.53,3.7l5.17,12.43-12.43,5.17c-1.44.6-2.13,2.26-1.53,3.7.6,1.44,2.26,2.13,3.7,1.53l12.43-5.17,5.17,12.43c.6,1.44,2.26,2.13,3.7,1.53,1.44-.6,2.13-2.26,1.53-3.7l-5.17-12.43,12.43-5.17c1.44-.6,2.13-2.26,1.53-3.7Z"/>
          <path class="cls-14" d="m1244.33,140.09c-.6-1.44-2.26-2.13-3.7-1.53l-12.43,5.17-5.17-12.43c-.6-1.44-2.26-2.13-3.7-1.53-1.44.6-2.13,2.26-1.53,3.7l5.17,12.43-12.43,5.17c-1.44.6-2.13,2.26-1.53,3.7.6,1.44,2.26,2.13,3.7,1.53l12.43-5.17,5.17,12.43c.6,1.44,2.26,2.13,3.7,1.53s2.13-2.26,1.53-3.7l-5.17-12.43,12.43-5.17c1.44-.6,2.13-2.26,1.53-3.7Z"/>
          <path class="cls-14" d="m1307.16,166.01c-.6-1.44-2.26-2.13-3.7-1.53l-12.43,5.17-5.17-12.43c-.6-1.44-2.26-2.13-3.7-1.53-1.44.6-2.13,2.26-1.53,3.7l5.17,12.43-12.43,5.17c-1.44.6-2.13,2.26-1.53,3.7.6,1.44,2.26,2.13,3.7,1.53l12.43-5.17,5.17,12.43c.6,1.44,2.26,2.13,3.7,1.53,1.44-.6,2.13-2.26,1.53-3.7l-5.17-12.43,12.43-5.17c1.44-.6,2.13-2.26,1.53-3.7Z"/>
          <path class="cls-14" d="m913.14,86.07c.6,1.44,2.26,2.13,3.7,1.53l12.43-5.17,5.17,12.43c.6,1.44,2.26,2.13,3.7,1.53,1.44-.6,2.13-2.26,1.53-3.7l-5.17-12.43,12.43-5.17c1.44-.6,2.13-2.26,1.53-3.7-.6-1.44-2.26-2.13-3.7-1.53l-12.43,5.17-5.17-12.43c-.6-1.44-2.26-2.13-3.7-1.53-1.44.6-2.13,2.26-1.53,3.7l5.17,12.43-12.43,5.17c-1.44.6-2.13,2.26-1.53,3.7Z"/>
          <path class="cls-14" d="m975.97,111.99c.6,1.44,2.26,2.13,3.7,1.53l12.43-5.17,5.17,12.43c.6,1.44,2.26,2.13,3.7,1.53,1.44-.6,2.13-2.26,1.53-3.7l-5.17-12.43,12.43-5.17c1.44-.6,2.13-2.26,1.53-3.7-.6-1.44-2.26-2.13-3.7-1.53l-12.43,5.17-5.17-12.43c-.6-1.44-2.26-2.13-3.7-1.53-1.44.6-2.13,2.26-1.53,3.7l5.17,12.43-12.43,5.17c-1.44.6-2.13,2.26-1.53,3.7Z"/>
          <path class="cls-14" d="m1038.81,137.9c.6,1.44,2.26,2.13,3.7,1.53l12.43-5.17,5.17,12.43c.6,1.44,2.26,2.13,3.7,1.53,1.44-.6,2.13-2.26,1.53-3.7l-5.17-12.43,12.43-5.17c1.44-.6,2.13-2.26,1.53-3.7-.6-1.44-2.26-2.13-3.7-1.53l-12.43,5.17-5.17-12.43c-.6-1.44-2.26-2.13-3.7-1.53-1.44.6-2.13,2.26-1.53,3.7l5.17,12.43-12.43,5.17c-1.44.6-2.13,2.26-1.53,3.7Z"/>
          <path class="cls-14" d="m1101.64,163.81c.6,1.44,2.26,2.13,3.7,1.53l12.43-5.17,5.17,12.43c.6,1.44,2.26,2.13,3.7,1.53,1.44-.6,2.13-2.26,1.53-3.7l-5.17-12.43,12.43-5.17c1.44-.6,2.13-2.26,1.53-3.7-.6-1.44-2.26-2.13-3.7-1.53l-12.43,5.17-5.17-12.43c-.6-1.44-2.26-2.13-3.7-1.53-1.44.6-2.13,2.26-1.53,3.7l5.17,12.43-12.43,5.17c-1.44.6-2.13,2.26-1.53,3.7Z"/>
          <path class="cls-14" d="m1164.48,189.73c.6,1.44,2.26,2.13,3.7,1.53l12.43-5.17,5.17,12.43c.6,1.44,2.26,2.13,3.7,1.53,1.44-.6,2.13-2.26,1.53-3.7l-5.17-12.43,12.43-5.17c1.44-.6,2.13-2.26,1.53-3.7-.6-1.44-2.26-2.13-3.7-1.53l-12.43,5.17-5.17-12.43c-.6-1.44-2.26-2.13-3.7-1.53-1.44.6-2.13,2.26-1.53,3.7l5.17,12.43-12.43,5.17c-1.44.6-2.13,2.26-1.53,3.7Z"/>
          <path class="cls-14" d="m1227.32,215.64c.6,1.44,2.26,2.13,3.7,1.53l12.43-5.17,5.17,12.43c.6,1.44,2.26,2.13,3.7,1.53,1.44-.6,2.13-2.26,1.53-3.7l-5.17-12.43,12.43-5.17c1.44-.6,2.13-2.26,1.53-3.7s-2.26-2.13-3.7-1.53l-12.43,5.17-5.17-12.43c-.6-1.44-2.26-2.13-3.7-1.53-1.44.6-2.13,2.26-1.53,3.7l5.17,12.43-12.43,5.17c-1.44.6-2.13,2.26-1.53,3.7Z"/>
          <path class="cls-14" d="m1311.51,235.73l12.43-5.17c1.44-.6,2.13-2.26,1.53-3.7-.6-1.44-2.26-2.13-3.7-1.53l-12.43,5.17-5.17-12.43c-.6-1.44-2.26-2.13-3.7-1.53-1.44.6-2.13,2.26-1.53,3.7l5.17,12.43-12.43,5.17c-1.44.6-2.13,2.26-1.53,3.7.6,1.44,2.26,2.13,3.7,1.53l12.43-5.17,5.17,12.43c.6,1.44,2.26,2.13,3.7,1.53,1.44-.6,2.13-2.26,1.53-3.7l-5.17-12.43Z"/>
          <path class="cls-14" d="m891.54,104.15c-.6-1.44-2.26-2.13-3.7-1.53l-12.43,5.17-5.17-12.43c-.6-1.44-2.26-2.13-3.7-1.53-1.44.6-2.13,2.26-1.53,3.7l5.17,12.43-12.43,5.17c-1.44.6-2.13,2.26-1.53,3.7.6,1.44,2.26,2.13,3.7,1.53l12.43-5.17,5.17,12.43c.6,1.44,2.26,2.13,3.7,1.53,1.44-.6,2.13-2.26,1.53-3.7l-5.17-12.43,12.43-5.17c1.44-.6,2.13-2.26,1.53-3.7Z"/>
          <path class="cls-14" d="m954.38,130.07c-.6-1.44-2.26-2.13-3.7-1.53l-12.43,5.17-5.17-12.43c-.6-1.44-2.26-2.13-3.7-1.53-1.44.6-2.13,2.26-1.53,3.7l5.17,12.43-12.43,5.17c-1.44.6-2.13,2.26-1.53,3.7s2.26,2.13,3.7,1.53l12.43-5.17,5.17,12.43c.6,1.44,2.26,2.13,3.7,1.53,1.44-.6,2.13-2.26,1.53-3.7l-5.17-12.43,12.43-5.17c1.44-.6,2.13-2.26,1.53-3.7Z"/>
          <path class="cls-14" d="m1017.21,155.98c-.6-1.44-2.26-2.13-3.7-1.53l-12.43,5.17-5.17-12.43c-.6-1.44-2.26-2.13-3.7-1.53-1.44.6-2.13,2.26-1.53,3.7l5.17,12.43-12.43,5.17c-1.44.6-2.13,2.26-1.53,3.7.6,1.44,2.26,2.13,3.7,1.53l12.43-5.17,5.17,12.43c.6,1.44,2.26,2.13,3.7,1.53s2.13-2.26,1.53-3.7l-5.17-12.43,12.43-5.17c1.44-.6,2.13-2.26,1.53-3.7Z"/>
          <path class="cls-14" d="m1080.05,181.89c-.6-1.44-2.26-2.13-3.7-1.53l-12.43,5.17-5.17-12.43c-.6-1.44-2.26-2.13-3.7-1.53-1.44.6-2.13,2.26-1.53,3.7l5.17,12.43-12.43,5.17c-1.44.6-2.13,2.26-1.53,3.7.6,1.44,2.26,2.13,3.7,1.53l12.43-5.17,5.17,12.43c.6,1.44,2.26,2.13,3.7,1.53,1.44-.6,2.13-2.26,1.53-3.7l-5.17-12.43,12.43-5.17c1.44-.6,2.13-2.26,1.53-3.7Z"/>
          <path class="cls-14" d="m1142.88,207.81c-.6-1.44-2.26-2.13-3.7-1.53l-12.43,5.17-5.17-12.43c-.6-1.44-2.26-2.13-3.7-1.53-1.44.6-2.13,2.26-1.53,3.7l5.17,12.43-12.43,5.17c-1.44.6-2.13,2.26-1.53,3.7.6,1.44,2.26,2.13,3.7,1.53l12.43-5.17,5.17,12.43c.6,1.44,2.26,2.13,3.7,1.53,1.44-.6,2.13-2.26,1.53-3.7l-5.17-12.43,12.43-5.17c1.44-.6,2.13-2.26,1.53-3.7Z"/>
          <path class="cls-14" d="m1205.72,233.72c-.6-1.44-2.26-2.13-3.7-1.53l-12.43,5.17-5.17-12.43c-.6-1.44-2.26-2.13-3.7-1.53s-2.13,2.26-1.53,3.7l5.17,12.43-12.43,5.17c-1.44.6-2.13,2.26-1.53,3.7s2.26,2.13,3.7,1.53l12.43-5.17,5.17,12.43c.6,1.44,2.26,2.13,3.7,1.53,1.44-.6,2.13-2.26,1.53-3.7l-5.17-12.43,12.43-5.17c1.44-.6,2.13-2.26,1.53-3.7Z"/>
          <path class="cls-14" d="m1268.56,259.63c-.6-1.44-2.26-2.13-3.7-1.53l-12.43,5.17-5.17-12.43c-.6-1.44-2.26-2.13-3.7-1.53-1.44.6-2.13,2.26-1.53,3.7l5.17,12.43-12.43,5.17c-1.44.6-2.13,2.26-1.53,3.7.6,1.44,2.26,2.13,3.7,1.53l12.43-5.17,5.17,12.43c.6,1.44,2.26,2.13,3.7,1.53,1.44-.6,2.13-2.26,1.53-3.7l-5.17-12.43,12.43-5.17c1.44-.6,2.13-2.26,1.53-3.7Z"/>
          <path class="cls-14" d="m874.53,179.7c.6,1.44,2.26,2.13,3.7,1.53l12.43-5.17,5.17,12.43c.6,1.44,2.26,2.13,3.7,1.53,1.44-.6,2.13-2.26,1.53-3.7l-5.17-12.43,12.43-5.17c1.44-.6,2.13-2.26,1.53-3.7-.6-1.44-2.26-2.13-3.7-1.53l-12.43,5.17-5.17-12.43c-.6-1.44-2.26-2.13-3.7-1.53-1.44.6-2.13,2.26-1.53,3.7l5.17,12.43-12.43,5.17c-1.44.6-2.13,2.26-1.53,3.7Z"/>
          <path class="cls-14" d="m937.36,205.61c.6,1.44,2.26,2.13,3.7,1.53l12.43-5.17,5.17,12.43c.6,1.44,2.26,2.13,3.7,1.53s2.13-2.26,1.53-3.7l-5.17-12.43,12.43-5.17c1.44-.6,2.13-2.26,1.53-3.7-.6-1.44-2.26-2.13-3.7-1.53l-12.43,5.17-5.17-12.43c-.6-1.44-2.26-2.13-3.7-1.53-1.44.6-2.13,2.26-1.53,3.7l5.17,12.43-12.43,5.17c-1.44.6-2.13,2.26-1.53,3.7Z"/>
          <path class="cls-14" d="m1000.2,231.52c.6,1.44,2.26,2.13,3.7,1.53l12.43-5.17,5.17,12.43c.6,1.44,2.26,2.13,3.7,1.53,1.44-.6,2.13-2.26,1.53-3.7l-5.17-12.43,12.43-5.17c1.44-.6,2.13-2.26,1.53-3.7-.6-1.44-2.26-2.13-3.7-1.53l-12.43,5.17-5.17-12.43c-.6-1.44-2.26-2.13-3.7-1.53-1.44.6-2.13,2.26-1.53,3.7l5.17,12.43-12.43,5.17c-1.44.6-2.13,2.26-1.53,3.7Z"/>
          <path class="cls-14" d="m1063.03,257.44c.6,1.44,2.26,2.13,3.7,1.53l12.43-5.17,5.17,12.43c.6,1.44,2.26,2.13,3.7,1.53,1.44-.6,2.13-2.26,1.53-3.7l-5.17-12.43,12.43-5.17c1.44-.6,2.13-2.26,1.53-3.7-.6-1.44-2.26-2.13-3.7-1.53l-12.43,5.17-5.17-12.43c-.6-1.44-2.26-2.13-3.7-1.53-1.44.6-2.13,2.26-1.53,3.7l5.17,12.43-12.43,5.17c-1.44.6-2.13,2.26-1.53,3.7Z"/>
          <path class="cls-14" d="m1125.87,283.35c.6,1.44,2.26,2.13,3.7,1.53l12.43-5.17,5.17,12.43c.6,1.44,2.26,2.13,3.7,1.53,1.44-.6,2.13-2.26,1.53-3.7l-5.17-12.43,12.43-5.17c1.44-.6,2.13-2.26,1.53-3.7-.6-1.44-2.26-2.13-3.7-1.53l-12.43,5.17-5.17-12.43c-.6-1.44-2.26-2.13-3.7-1.53-1.44.6-2.13,2.26-1.53,3.7l5.17,12.43-12.43,5.17c-1.44.6-2.13,2.26-1.53,3.7Z"/>
          <path class="cls-14" d="m1188.71,309.26c.6,1.44,2.26,2.13,3.7,1.53l12.43-5.17,5.17,12.43c.6,1.44,2.26,2.13,3.7,1.53,1.44-.6,2.13-2.26,1.53-3.7l-5.17-12.43,12.43-5.17c1.44-.6,2.13-2.26,1.53-3.7s-2.26-2.13-3.7-1.53l-12.43,5.17-5.17-12.43c-.6-1.44-2.26-2.13-3.7-1.53-1.44.6-2.13,2.26-1.53,3.7l5.17,12.43-12.43,5.17c-1.44.6-2.13,2.26-1.53,3.7Z"/>
          <path class="cls-14" d="m1286.86,320.48c-.6-1.44-2.26-2.13-3.7-1.53l-12.43,5.17-5.17-12.43c-.6-1.44-2.26-2.13-3.7-1.53-1.44.6-2.13,2.26-1.53,3.7l5.17,12.43-12.43,5.17c-1.44.6-2.13,2.26-1.53,3.7.6,1.44,2.26,2.13,3.7,1.53l12.43-5.17,5.17,12.43c.6,1.44,2.26,2.13,3.7,1.53,1.44-.6,2.13-2.26,1.53-3.7l-5.17-12.43,12.43-5.17c1.44-.6,2.13-2.26,1.53-3.7Z"/>
          <path class="cls-14" d="m852.93,197.78c-.6-1.44-2.26-2.13-3.7-1.53l-12.43,5.17-5.17-12.43c-.6-1.44-2.26-2.13-3.7-1.53-1.44.6-2.13,2.26-1.53,3.7l5.17,12.43-12.43,5.17c-1.44.6-2.13,2.26-1.53,3.7.6,1.44,2.26,2.13,3.7,1.53l12.43-5.17,5.17,12.43c.6,1.44,2.26,2.13,3.7,1.53,1.44-.6,2.13-2.26,1.53-3.7l-5.17-12.43,12.43-5.17c1.44-.6,2.13-2.26,1.53-3.7Z"/>
          <path class="cls-14" d="m915.77,223.69c-.6-1.44-2.26-2.13-3.7-1.53l-12.43,5.17-5.17-12.43c-.6-1.44-2.26-2.13-3.7-1.53-1.44.6-2.13,2.26-1.53,3.7l5.17,12.43-12.43,5.17c-1.44.6-2.13,2.26-1.53,3.7s2.26,2.13,3.7,1.53l12.43-5.17,5.17,12.43c.6,1.44,2.26,2.13,3.7,1.53,1.44-.6,2.13-2.26,1.53-3.7l-5.17-12.43,12.43-5.17c1.44-.6,2.13-2.26,1.53-3.7Z"/>
          <path class="cls-14" d="m978.6,249.6c-.6-1.44-2.26-2.13-3.7-1.53l-12.43,5.17-5.17-12.43c-.6-1.44-2.26-2.13-3.7-1.53-1.44.6-2.13,2.26-1.53,3.7l5.17,12.43-12.43,5.17c-1.44.6-2.13,2.26-1.53,3.7.6,1.44,2.26,2.13,3.7,1.53l12.43-5.17,5.17,12.43c.6,1.44,2.26,2.13,3.7,1.53,1.44-.6,2.13-2.26,1.53-3.7l-5.17-12.43,12.43-5.17c1.44-.6,2.13-2.26,1.53-3.7Z"/>
          <path class="cls-14" d="m1041.44,275.52c-.6-1.44-2.26-2.13-3.7-1.53l-12.43,5.17-5.17-12.43c-.6-1.44-2.26-2.13-3.7-1.53-1.44.6-2.13,2.26-1.53,3.7l5.17,12.43-12.43,5.17c-1.44.6-2.13,2.26-1.53,3.7.6,1.44,2.26,2.13,3.7,1.53l12.43-5.17,5.17,12.43c.6,1.44,2.26,2.13,3.7,1.53,1.44-.6,2.13-2.26,1.53-3.7l-5.17-12.43,12.43-5.17c1.44-.6,2.13-2.26,1.53-3.7Z"/>
          <path class="cls-14" d="m1104.27,301.43c-.6-1.44-2.26-2.13-3.7-1.53l-12.43,5.17-5.17-12.43c-.6-1.44-2.26-2.13-3.7-1.53-1.44.6-2.13,2.26-1.53,3.7l5.17,12.43-12.43,5.17c-1.44.6-2.13,2.26-1.53,3.7.6,1.44,2.26,2.13,3.7,1.53l12.43-5.17,5.17,12.43c.6,1.44,2.26,2.13,3.7,1.53,1.44-.6,2.13-2.26,1.53-3.7l-5.17-12.43,12.43-5.17c1.44-.6,2.13-2.26,1.53-3.7Z"/>
          <path class="cls-14" d="m1167.11,327.34c-.6-1.44-2.26-2.13-3.7-1.53l-12.43,5.17-5.17-12.43c-.6-1.44-2.26-2.13-3.7-1.53-1.44.6-2.13,2.26-1.53,3.7l5.17,12.43-12.43,5.17c-1.44.6-2.13,2.26-1.53,3.7s2.26,2.13,3.7,1.53l12.43-5.17,5.17,12.43c.6,1.44,2.26,2.13,3.7,1.53s2.13-2.26,1.53-3.7l-5.17-12.43,12.43-5.17c1.44-.6,2.13-2.26,1.53-3.7Z"/>
          <path class="cls-14" d="m1229.95,353.25c-.6-1.44-2.26-2.13-3.7-1.53l-12.43,5.17-5.17-12.43c-.6-1.44-2.26-2.13-3.7-1.53-1.44.6-2.13,2.26-1.53,3.7l5.17,12.43-12.43,5.17c-1.44.6-2.13,2.26-1.53,3.7.6,1.44,2.26,2.13,3.7,1.53l12.43-5.17,5.17,12.43c.6,1.44,2.26,2.13,3.7,1.53,1.44-.6,2.13-2.26,1.53-3.7l-5.17-12.43,12.43-5.17c1.44-.6,2.13-2.26,1.53-3.7Z"/>
          <path class="cls-14" d="m835.92,273.32c.6,1.44,2.26,2.13,3.7,1.53l12.43-5.17,5.17,12.43c.6,1.44,2.26,2.13,3.7,1.53,1.44-.6,2.13-2.26,1.53-3.7l-5.17-12.43,12.43-5.17c1.44-.6,2.13-2.26,1.53-3.7-.6-1.44-2.26-2.13-3.7-1.53l-12.43,5.17-5.17-12.43c-.6-1.44-2.26-2.13-3.7-1.53-1.44.6-2.13,2.26-1.53,3.7l5.17,12.43-12.43,5.17c-1.44.6-2.13,2.26-1.53,3.7Z"/>
          <path class="cls-14" d="m898.75,299.24c.6,1.44,2.26,2.13,3.7,1.53l12.43-5.17,5.17,12.43c.6,1.44,2.26,2.13,3.7,1.53,1.44-.6,2.13-2.26,1.53-3.7l-5.17-12.43,12.43-5.17c1.44-.6,2.13-2.26,1.53-3.7-.6-1.44-2.26-2.13-3.7-1.53l-12.43,5.17-5.17-12.43c-.6-1.44-2.26-2.13-3.7-1.53-1.44.6-2.13,2.26-1.53,3.7l5.17,12.43-12.43,5.17c-1.44.6-2.13,2.26-1.53,3.7Z"/>
          <path class="cls-14" d="m961.59,325.15c.6,1.44,2.26,2.13,3.7,1.53l12.43-5.17,5.17,12.43c.6,1.44,2.26,2.13,3.7,1.53,1.44-.6,2.13-2.26,1.53-3.7l-5.17-12.43,12.43-5.17c1.44-.6,2.13-2.26,1.53-3.7s-2.26-2.13-3.7-1.53l-12.43,5.17-5.17-12.43c-.6-1.44-2.26-2.13-3.7-1.53-1.44.6-2.13,2.26-1.53,3.7l5.17,12.43-12.43,5.17c-1.44.6-2.13,2.26-1.53,3.7Z"/>
          <path class="cls-14" d="m1024.43,351.06c.6,1.44,2.26,2.13,3.7,1.53l12.43-5.17,5.17,12.43c.6,1.44,2.26,2.13,3.7,1.53,1.44-.6,2.13-2.26,1.53-3.7l-5.17-12.43,12.43-5.17c1.44-.6,2.13-2.26,1.53-3.7-.6-1.44-2.26-2.13-3.7-1.53l-12.43,5.17-5.17-12.43c-.6-1.44-2.26-2.13-3.7-1.53-1.44.6-2.13,2.26-1.53,3.7l5.17,12.43-12.43,5.17c-1.44.6-2.13,2.26-1.53,3.7Z"/>
          <path class="cls-14" d="m1087.26,376.97c.6,1.44,2.26,2.13,3.7,1.53l12.43-5.17,5.17,12.43c.6,1.44,2.26,2.13,3.7,1.53s2.13-2.26,1.53-3.7l-5.17-12.43,12.43-5.17c1.44-.6,2.13-2.26,1.53-3.7-.6-1.44-2.26-2.13-3.7-1.53l-12.43,5.17-5.17-12.43c-.6-1.44-2.26-2.13-3.7-1.53-1.44.6-2.13,2.26-1.53,3.7l5.17,12.43-12.43,5.17c-1.44.6-2.13,2.26-1.53,3.7Z"/>
          <path class="cls-14" d="m1150.1,402.89c.6,1.44,2.26,2.13,3.7,1.53l12.43-5.17,5.17,12.43c.6,1.44,2.26,2.13,3.7,1.53,1.44-.6,2.13-2.26,1.53-3.7l-5.17-12.43,12.43-5.17c1.44-.6,2.13-2.26,1.53-3.7s-2.26-2.13-3.7-1.53l-12.43,5.17-5.17-12.43c-.6-1.44-2.26-2.13-3.7-1.53-1.44.6-2.13,2.26-1.53,3.7l5.17,12.43-12.43,5.17c-1.44.6-2.13,2.26-1.53,3.7Z"/>
          <path class="cls-14" d="m1248.25,414.1c-.6-1.44-2.26-2.13-3.7-1.53l-12.43,5.17-5.17-12.43c-.6-1.44-2.26-2.13-3.7-1.53-1.44.6-2.13,2.26-1.53,3.7l5.17,12.43-12.43,5.17c-1.44.6-2.13,2.26-1.53,3.7.6,1.44,2.26,2.13,3.7,1.53l12.43-5.17,5.17,12.43c.6,1.44,2.26,2.13,3.7,1.53,1.44-.6,2.13-2.26,1.53-3.7l-5.17-12.43,12.43-5.17c1.44-.6,2.13-2.26,1.53-3.7Z"/>
          <path class="cls-14" d="m814.32,291.4c-.6-1.44-2.26-2.13-3.7-1.53l-12.43,5.17-5.17-12.43c-.6-1.44-2.26-2.13-3.7-1.53-1.44.6-2.13,2.26-1.53,3.7l5.17,12.43-12.43,5.17c-1.44.6-2.13,2.26-1.53,3.7.6,1.44,2.26,2.13,3.7,1.53l12.43-5.17,5.17,12.43c.6,1.44,2.26,2.13,3.7,1.53,1.44-.6,2.13-2.26,1.53-3.7l-5.17-12.43,12.43-5.17c1.44-.6,2.13-2.26,1.53-3.7Z"/>
          <path class="cls-14" d="m877.16,317.31c-.6-1.44-2.26-2.13-3.7-1.53l-12.43,5.17-5.17-12.43c-.6-1.44-2.26-2.13-3.7-1.53-1.44.6-2.13,2.26-1.53,3.7l5.17,12.43-12.43,5.17c-1.44.6-2.13,2.26-1.53,3.7.6,1.44,2.26,2.13,3.7,1.53l12.43-5.17,5.17,12.43c.6,1.44,2.26,2.13,3.7,1.53,1.44-.6,2.13-2.26,1.53-3.7l-5.17-12.43,12.43-5.17c1.44-.6,2.13-2.26,1.53-3.7Z"/>
          <path class="cls-14" d="m939.99,343.23c-.6-1.44-2.26-2.13-3.7-1.53l-12.43,5.17-5.17-12.43c-.6-1.44-2.26-2.13-3.7-1.53-1.44.6-2.13,2.26-1.53,3.7l5.17,12.43-12.43,5.17c-1.44.6-2.13,2.26-1.53,3.7.6,1.44,2.26,2.13,3.7,1.53l12.43-5.17,5.17,12.43c.6,1.44,2.26,2.13,3.7,1.53,1.44-.6,2.13-2.26,1.53-3.7l-5.17-12.43,12.43-5.17c1.44-.6,2.13-2.26,1.53-3.7Z"/>
          <path class="cls-14" d="m1002.83,369.14c-.6-1.44-2.26-2.13-3.7-1.53l-12.43,5.17-5.17-12.43c-.6-1.44-2.26-2.13-3.7-1.53s-2.13,2.26-1.53,3.7l5.17,12.43-12.43,5.17c-1.44.6-2.13,2.26-1.53,3.7.6,1.44,2.26,2.13,3.7,1.53l12.43-5.17,5.17,12.43c.6,1.44,2.26,2.13,3.7,1.53,1.44-.6,2.13-2.26,1.53-3.7l-5.17-12.43,12.43-5.17c1.44-.6,2.13-2.26,1.53-3.7Z"/>
          <path class="cls-14" d="m1065.67,395.05c-.6-1.44-2.26-2.13-3.7-1.53l-12.43,5.17-5.17-12.43c-.6-1.44-2.26-2.13-3.7-1.53-1.44.6-2.13,2.26-1.53,3.7l5.17,12.43-12.43,5.17c-1.44.6-2.13,2.26-1.53,3.7.6,1.44,2.26,2.13,3.7,1.53l12.43-5.17,5.17,12.43c.6,1.44,2.26,2.13,3.7,1.53,1.44-.6,2.13-2.26,1.53-3.7l-5.17-12.43,12.43-5.17c1.44-.6,2.13-2.26,1.53-3.7Z"/>
          <path class="cls-14" d="m1128.5,420.97c-.6-1.44-2.26-2.13-3.7-1.53l-12.43,5.17-5.17-12.43c-.6-1.44-2.26-2.13-3.7-1.53-1.44.6-2.13,2.26-1.53,3.7l5.17,12.43-12.43,5.17c-1.44.6-2.13,2.26-1.53,3.7s2.26,2.13,3.7,1.53l12.43-5.17,5.17,12.43c.6,1.44,2.26,2.13,3.7,1.53s2.13-2.26,1.53-3.7l-5.17-12.43,12.43-5.17c1.44-.6,2.13-2.26,1.53-3.7Z"/>
          <path class="cls-14" d="m1191.34,446.88c-.6-1.44-2.26-2.13-3.7-1.53l-12.43,5.17-5.17-12.43c-.6-1.44-2.26-2.13-3.7-1.53-1.44.6-2.13,2.26-1.53,3.7l5.17,12.43-12.43,5.17c-1.44.6-2.13,2.26-1.53,3.7.6,1.44,2.26,2.13,3.7,1.53l12.43-5.17,5.17,12.43c.6,1.44,2.26,2.13,3.7,1.53,1.44-.6,2.13-2.26,1.53-3.7l-5.17-12.43,12.43-5.17c1.44-.6,2.13-2.26,1.53-3.7Z"/>
          <path class="cls-14" d="m797.31,366.95c.6,1.44,2.26,2.13,3.7,1.53l12.43-5.17,5.17,12.43c.6,1.44,2.26,2.13,3.7,1.53,1.44-.6,2.13-2.26,1.53-3.7l-5.17-12.43,12.43-5.17c1.44-.6,2.13-2.26,1.53-3.7s-2.26-2.13-3.7-1.53l-12.43,5.17-5.17-12.43c-.6-1.44-2.26-2.13-3.7-1.53-1.44.6-2.13,2.26-1.53,3.7l5.17,12.43-12.43,5.17c-1.44.6-2.13,2.26-1.53,3.7Z"/>
          <path class="cls-14" d="m860.14,392.86c.6,1.44,2.26,2.13,3.7,1.53l12.43-5.17,5.17,12.43c.6,1.44,2.26,2.13,3.7,1.53s2.13-2.26,1.53-3.7l-5.17-12.43,12.43-5.17c1.44-.6,2.13-2.26,1.53-3.7-.6-1.44-2.26-2.13-3.7-1.53l-12.43,5.17-5.17-12.43c-.6-1.44-2.26-2.13-3.7-1.53-1.44.6-2.13,2.26-1.53,3.7l5.17,12.43-12.43,5.17c-1.44.6-2.13,2.26-1.53,3.7Z"/>
          <path class="cls-14" d="m922.98,418.77c.6,1.44,2.26,2.13,3.7,1.53l12.43-5.17,5.17,12.43c.6,1.44,2.26,2.13,3.7,1.53,1.44-.6,2.13-2.26,1.53-3.7l-5.17-12.43,12.43-5.17c1.44-.6,2.13-2.26,1.53-3.7-.6-1.44-2.26-2.13-3.7-1.53l-12.43,5.17-5.17-12.43c-.6-1.44-2.26-2.13-3.7-1.53-1.44.6-2.13,2.26-1.53,3.7l5.17,12.43-12.43,5.17c-1.44.6-2.13,2.26-1.53,3.7Z"/>
          <path class="cls-14" d="m985.82,444.68c.6,1.44,2.26,2.13,3.7,1.53l12.43-5.17,5.17,12.43c.6,1.44,2.26,2.13,3.7,1.53,1.44-.6,2.13-2.26,1.53-3.7l-5.17-12.43,12.43-5.17c1.44-.6,2.13-2.26,1.53-3.7-.6-1.44-2.26-2.13-3.7-1.53l-12.43,5.17-5.17-12.43c-.6-1.44-2.26-2.13-3.7-1.53-1.44.6-2.13,2.26-1.53,3.7l5.17,12.43-12.43,5.17c-1.44.6-2.13,2.26-1.53,3.7Z"/>
          <path class="cls-14" d="m1048.65,470.6c.6,1.44,2.26,2.13,3.7,1.53l12.43-5.17,5.17,12.43c.6,1.44,2.26,2.13,3.7,1.53,1.44-.6,2.13-2.26,1.53-3.7l-5.17-12.43,12.43-5.17c1.44-.6,2.13-2.26,1.53-3.7-.6-1.44-2.26-2.13-3.7-1.53l-12.43,5.17-5.17-12.43c-.6-1.44-2.26-2.13-3.7-1.53-1.44.6-2.13,2.26-1.53,3.7l5.17,12.43-12.43,5.17c-1.44.6-2.13,2.26-1.53,3.7Z"/>
          <path class="cls-14" d="m1111.49,496.51c.6,1.44,2.26,2.13,3.7,1.53l12.43-5.17,5.17,12.43c.6,1.44,2.26,2.13,3.7,1.53,1.44-.6,2.13-2.26,1.53-3.7l-5.17-12.43,12.43-5.17c1.44-.6,2.13-2.26,1.53-3.7-.6-1.44-2.26-2.13-3.7-1.53l-12.43,5.17-5.17-12.43c-.6-1.44-2.26-2.13-3.7-1.53-1.44.6-2.13,2.26-1.53,3.7l5.17,12.43-12.43,5.17c-1.44.6-2.13,2.26-1.53,3.7Z"/>
          <path class="cls-14" d="m1209.64,507.73c-.6-1.44-2.26-2.13-3.7-1.53l-12.43,5.17-5.17-12.43c-.6-1.44-2.26-2.13-3.7-1.53-1.44.6-2.13,2.26-1.53,3.7l5.17,12.43-12.43,5.17c-1.44.6-2.13,2.26-1.53,3.7.6,1.44,2.26,2.13,3.7,1.53l12.43-5.17,5.17,12.43c.6,1.44,2.26,2.13,3.7,1.53,1.44-.6,2.13-2.26,1.53-3.7l-5.17-12.43,12.43-5.17c1.44-.6,2.13-2.26,1.53-3.7Z"/>
          <path class="cls-14" d="m775.71,385.03c-.6-1.44-2.26-2.13-3.7-1.53l-12.43,5.17-5.17-12.43c-.6-1.44-2.26-2.13-3.7-1.53-1.44.6-2.13,2.26-1.53,3.7l5.17,12.43-12.43,5.17c-1.44.6-2.13,2.26-1.53,3.7.6,1.44,2.26,2.13,3.7,1.53l12.43-5.17,5.17,12.43c.6,1.44,2.26,2.13,3.7,1.53,1.44-.6,2.13-2.26,1.53-3.7l-5.17-12.43,12.43-5.17c1.44-.6,2.13-2.26,1.53-3.7Z"/>
          <path class="cls-14" d="m838.55,410.94c-.6-1.44-2.26-2.13-3.7-1.53l-12.43,5.17-5.17-12.43c-.6-1.44-2.26-2.13-3.7-1.53-1.44.6-2.13,2.26-1.53,3.7l5.17,12.43-12.43,5.17c-1.44.6-2.13,2.26-1.53,3.7s2.26,2.13,3.7,1.53l12.43-5.17,5.17,12.43c.6,1.44,2.26,2.13,3.7,1.53,1.44-.6,2.13-2.26,1.53-3.7l-5.17-12.43,12.43-5.17c1.44-.6,2.13-2.26,1.53-3.7Z"/>
          <path class="cls-14" d="m901.38,436.85c-.6-1.44-2.26-2.13-3.7-1.53l-12.43,5.17-5.17-12.43c-.6-1.44-2.26-2.13-3.7-1.53-1.44.6-2.13,2.26-1.53,3.7l5.17,12.43-12.43,5.17c-1.44.6-2.13,2.26-1.53,3.7.6,1.44,2.26,2.13,3.7,1.53l12.43-5.17,5.17,12.43c.6,1.44,2.26,2.13,3.7,1.53,1.44-.6,2.13-2.26,1.53-3.7l-5.17-12.43,12.43-5.17c1.44-.6,2.13-2.26,1.53-3.7Z"/>
          <path class="cls-14" d="m964.22,462.76c-.6-1.44-2.26-2.13-3.7-1.53l-12.43,5.17-5.17-12.43c-.6-1.44-2.26-2.13-3.7-1.53-1.44.6-2.13,2.26-1.53,3.7l5.17,12.43-12.43,5.17c-1.44.6-2.13,2.26-1.53,3.7.6,1.44,2.26,2.13,3.7,1.53l12.43-5.17,5.17,12.43c.6,1.44,2.26,2.13,3.7,1.53,1.44-.6,2.13-2.26,1.53-3.7l-5.17-12.43,12.43-5.17c1.44-.6,2.13-2.26,1.53-3.7Z"/>
          <path class="cls-14" d="m1027.06,488.68c-.6-1.44-2.26-2.13-3.7-1.53l-12.43,5.17-5.17-12.43c-.6-1.44-2.26-2.13-3.7-1.53-1.44.6-2.13,2.26-1.53,3.7l5.17,12.43-12.43,5.17c-1.44.6-2.13,2.26-1.53,3.7.6,1.44,2.26,2.13,3.7,1.53l12.43-5.17,5.17,12.43c.6,1.44,2.26,2.13,3.7,1.53,1.44-.6,2.13-2.26,1.53-3.7l-5.17-12.43,12.43-5.17c1.44-.6,2.13-2.26,1.53-3.7Z"/>
          <path class="cls-14" d="m1089.89,514.59c-.6-1.44-2.26-2.13-3.7-1.53l-12.43,5.17-5.17-12.43c-.6-1.44-2.26-2.13-3.7-1.53-1.44.6-2.13,2.26-1.53,3.7l5.17,12.43-12.43,5.17c-1.44.6-2.13,2.26-1.53,3.7s2.26,2.13,3.7,1.53l12.43-5.17,5.17,12.43c.6,1.44,2.26,2.13,3.7,1.53s2.13-2.26,1.53-3.7l-5.17-12.43,12.43-5.17c1.44-.6,2.13-2.26,1.53-3.7Z"/>
          <path class="cls-14" d="m1152.73,540.5c-.6-1.44-2.26-2.13-3.7-1.53l-12.43,5.17-5.17-12.43c-.6-1.44-2.26-2.13-3.7-1.53-1.44.6-2.13,2.26-1.53,3.7l5.17,12.43-12.43,5.17c-1.44.6-2.13,2.26-1.53,3.7.6,1.44,2.26,2.13,3.7,1.53l12.43-5.17,5.17,12.43c.6,1.44,2.26,2.13,3.7,1.53s2.13-2.26,1.53-3.7l-5.17-12.43,12.43-5.17c1.44-.6,2.13-2.26,1.53-3.7Z"/>
          <path class="cls-14" d="m794.02,445.88c-.6-1.44-2.26-2.13-3.7-1.53l-12.43,5.17-5.17-12.43c-.6-1.44-2.26-2.13-3.7-1.53-1.44.6-2.13,2.26-1.53,3.7l5.17,12.43-12.43,5.17c-1.44.6-2.13,2.26-1.53,3.7s2.26,2.13,3.7,1.53l12.43-5.17,5.17,12.43c.6,1.44,2.26,2.13,3.7,1.53,1.44-.6,2.13-2.26,1.53-3.7l-5.17-12.43,12.43-5.17c1.44-.6,2.13-2.26,1.53-3.7Z"/>
          <path class="cls-14" d="m856.85,471.79c-.6-1.44-2.26-2.13-3.7-1.53l-12.43,5.17-5.17-12.43c-.6-1.44-2.26-2.13-3.7-1.53-1.44.6-2.13,2.26-1.53,3.7l5.17,12.43-12.43,5.17c-1.44.6-2.13,2.26-1.53,3.7.6,1.44,2.26,2.13,3.7,1.53l12.43-5.17,5.17,12.43c.6,1.44,2.26,2.13,3.7,1.53s2.13-2.26,1.53-3.7l-5.17-12.43,12.43-5.17c1.44-.6,2.13-2.26,1.53-3.7Z"/>
          <path class="cls-14" d="m919.69,497.7c-.6-1.44-2.26-2.13-3.7-1.53l-12.43,5.17-5.17-12.43c-.6-1.44-2.26-2.13-3.7-1.53-1.44.6-2.13,2.26-1.53,3.7l5.17,12.43-12.43,5.17c-1.44.6-2.13,2.26-1.53,3.7.6,1.44,2.26,2.13,3.7,1.53l12.43-5.17,5.17,12.43c.6,1.44,2.26,2.13,3.7,1.53,1.44-.6,2.13-2.26,1.53-3.7l-5.17-12.43,12.43-5.17c1.44-.6,2.13-2.26,1.53-3.7Z"/>
          <path class="cls-14" d="m982.53,523.61c-.6-1.44-2.26-2.13-3.7-1.53l-12.43,5.17-5.17-12.43c-.6-1.44-2.26-2.13-3.7-1.53-1.44.6-2.13,2.26-1.53,3.7l5.17,12.43-12.43,5.17c-1.44.6-2.13,2.26-1.53,3.7s2.26,2.13,3.7,1.53l12.43-5.17,5.17,12.43c.6,1.44,2.26,2.13,3.7,1.53,1.44-.6,2.13-2.26,1.53-3.7l-5.17-12.43,12.43-5.17c1.44-.6,2.13-2.26,1.53-3.7Z"/>
          <path class="cls-14" d="m1045.36,549.53c-.6-1.44-2.26-2.13-3.7-1.53l-12.43,5.17-5.17-12.43c-.6-1.44-2.26-2.13-3.7-1.53-1.44.6-2.13,2.26-1.53,3.7l5.17,12.43-12.43,5.17c-1.44.6-2.13,2.26-1.53,3.7.6,1.44,2.26,2.13,3.7,1.53l12.43-5.17,5.17,12.43c.6,1.44,2.26,2.13,3.7,1.53s2.13-2.26,1.53-3.7l-5.17-12.43,12.43-5.17c1.44-.6,2.13-2.26,1.53-3.7Z"/>
          <path class="cls-14" d="m1108.2,575.44c-.6-1.44-2.26-2.13-3.7-1.53l-12.43,5.17-5.17-12.43c-.6-1.44-2.26-2.13-3.7-1.53-1.44.6-2.13,2.26-1.53,3.7l5.17,12.43-12.43,5.17c-1.44.6-2.13,2.26-1.53,3.7.6,1.44,2.26,2.13,3.7,1.53l12.43-5.17,5.17,12.43c.6,1.44,2.26,2.13,3.7,1.53,1.44-.6,2.13-2.26,1.53-3.7l-5.17-12.43,12.43-5.17c1.44-.6,2.13-2.26,1.53-3.7Z"/>
          <path class="cls-14" d="m1171.03,601.35c-.6-1.44-2.26-2.13-3.7-1.53l-12.43,5.17-5.17-12.43c-.6-1.44-2.26-2.13-3.7-1.53-1.44.6-2.13,2.26-1.53,3.7l5.17,12.43-12.43,5.17c-1.44.6-2.13,2.26-1.53,3.7.6,1.44,2.26,2.13,3.7,1.53l12.43-5.17,5.17,12.43c.6,1.44,2.26,2.13,3.7,1.53,1.44-.6,2.13-2.26,1.53-3.7l-5.17-12.43,12.43-5.17c1.44-.6,2.13-2.26,1.53-3.7Z"/>
        </g>
      </g>
      <path class="cls-11" d="m1060.68,109.87c.8-.9,1.67-1.78,2.79-2.21,1.86-.71,4.05.02,5.51,1.38,1.47,1.35,2.35,3.22,3.07,5.08,1.3,3.36,2.19,6.93,1.99,10.52s-1.6,7.21-4.3,9.59c-2.7,2.38-6.78,3.29-10.04,1.76-2.88-1.35-4.73-4.34-5.47-7.44-1.77-7.44,1.59-13.21,6.44-18.68Z"/>
      <path class="cls-11" d="m998.27,209.95c1.38,4.1,5.78,6.32,9.93,7.5,5.44,1.54,11.19,2.01,16.81,1.39,6.77-.75,14.41-4.28,15.49-11.01.7-4.36-1.63-8.57-2.63-12.87-2.56-10.99,3.58-22.87.08-33.59-4.46-13.65-22.39-17.57-32.79-8.03-7.49,6.87-3.83,19.19-3.79,28.06.02,4.59-.32,9.17-1.16,13.69-.86,4.65-3.53,10.14-1.94,14.86Z"/>
    </g>
    <path class="cls-4" d="m982.87,905.3l1.76,15.87c.63,5.72-3.8,10.74-9.56,10.82l-56.82.74c-7,.09-9.02-9.49-2.58-12.22,7.34-3.12,14.53-6.6,21.53-10.44,8.66-4.75,9.94-11.74,19.89-9.9,1.58.29,12.24.93,19.08-.01,3.3-.46,6.32,1.84,6.69,5.15Z"/>
    <path class="cls-4" d="m1020.85,905.27l-1.77,15.87c-.64,5.72,3.79,10.74,9.55,10.82l56.82.78c7,.1,9.03-9.48,2.59-12.22-7.34-3.12-14.53-6.61-21.52-10.45-8.66-4.76-9.93-11.75-19.89-9.92-1.58.29-12.24.92-19.08-.03-3.3-.46-6.33,1.84-6.69,5.15Z"/>
  </g>
  <g>
    <path class="cls-11" d="m799.96,299.36c1.25-.25,2.66-.3,3.67.48,1.62,1.23,1.31,3.84.18,5.53-1.13,1.69-2.85,2.94-3.91,4.67-.32.52-.57,1.21-.22,1.72.36.53,1.13.52,1.77.44,9.29-1.19,18.82-4.96,27.8-3.53,2.31.37,2.91,3.51.95,4.79-4.93,3.19-13.02,3.37-15.87,8.75,4.7.22,9.37-.72,14.08-.91,4.7-.19,9.71.48,13.38,3.43.4.32.8.7.96,1.19.43,1.3-.96,2.45-2.22,2.97-7.44,3.04-16.75-.52-23.52,3.8,3.78,1.07,7.56,2.14,11.34,3.22,3.98,1.13,8.33,2.56,11.18,5.35,1.55,1.52.69,4.14-1.44,4.52-3.66.64-7.68-.29-11.24-1.63-4.82-1.81-9.52-4.34-14.66-4.59,5.11,3.11,10.22,6.21,15.33,9.32.79.48,1.67,1.11,1.72,2.03.04.71-.45,1.34-1,1.8-2.66,2.23-6.71,1.74-9.84.23s-5.78-3.89-8.93-5.33c-4.41-2.02-9.42-2.07-14.22-2.77-4.8-.7-9.9-2.37-12.55-6.42-1.39-2.12-2.11-4.88-4.31-6.13-1.32-.75-2.91-.79-4.43-.91-3.82-.29-7.75-1.25-10.7-3.69-3.69-3.05-5.44-9.02-1.69-12.71,3.42-3.36,6.34-.92,10.28-.73,11.79.56,17.44-12.69,28.14-14.86Z"/>
    <path class="cls-6" d="m419.22,98.5c.44-17.99,11.95-35.24,28.37-42.59,9.53-4.26,21.04-5.86,27.54-14.02.24,2.85.49,5.71.73,8.56,6.81-2.72,13.08-6.75,18.38-11.81,2.39,2.35.66,7,3.07,9.32.77.74,1.82,1.08,2.82,1.47,10.36,4.01,17.13,14.53,19.34,25.42s.55,22.16-1.67,33.05c-1.26,6.14-2.77,12.43-6.41,17.53-3.79,5.31-9.52,8.86-15.22,12.05-6.23,3.48-12.75,6.75-19.81,7.78-12.86,1.87-29.41.08-39.48-8.61-11.03-9.51-18.02-23.42-17.66-38.14Z"/>
    <path class="cls-6" d="m536.85,899.48c-8.03.49-16.06.96-24.09,1.4.37-124.18-23.56-248.44-47.47-370.76-2.46,32.75-4.84,65.48-6.16,98.29-2.29,56.6-1.46,113.33-.63,169.99.51,35.08,1.03,70.14,1.56,105.2-5.54.27-11.08.54-16.62.81-12.19-75.03-29.17-149.2-40.1-224.44-11.63-80.13-16.27-162.4-.69-241.79,42.78-5.25,86.24-4.45,128.85,2.34.26.03.52.09.8.12,37.91,117.04,35.56,244.55,20.06,367.13-3.88,30.73-8.7,61.51-15.51,91.71Z"/>
    <path class="cls-11" d="m509.27,131.04c-3.57,14.46-9.56,28.56-19.29,39.83-3.82,4.42-8.42,8.5-14.07,9.97-6.57,1.71-13.71-.45-19.19-4.44-5.48-4-9.53-9.66-12.95-15.52-13.78-23.6-18.75-52.22-13.73-79.09.39-2.09.86-4.22,1.99-6.02.97-1.55,2.38-2.77,3.87-3.83,10.07-7.08,23.5-6.59,35.69-4.92,13.28,1.82,32.01,5.1,41.15,16.14,4.52,5.45,1.81,13.9,1.09,20.5-1.01,9.2-2.34,18.38-4.56,27.37Z"/>
    <path class="cls-4" d="m386.5,210.45c-1.75,6.08-.94,14.33-1.08,20.25,0,77.2-.39,153.98,2.8,231.02.2,4.74,2.47,4.27,6.53,4.3,4.88.04,9.75.08,14.63.11l28.45.22c15.91.12,31.83.25,47.72,1.02,20.98,1.01,42.01,3.15,62.95,1.45.53-.04,1.08-.1,1.51-.42.58-.44.74-1.23.84-1.95,3.05-21.35,5.85-42.74,6.64-64.35.81-21.85.39-43.73.62-65.59.23-22.29.46-44.59.69-66.88.11-10.95-.26-21.89-.25-32.83,0-8.08,3.03-18.84.42-26.45-2.59-7.54-11.65-10.12-19.22-12.64-8.51-2.84-16.56-6.93-25.02-9.91-20.78-7.33-43.57-7.78-65.24-3.84-16.32,2.96-32.1,8.34-47.32,14.86-5.61,2.4-12.51,3.91-14.98,9.69-.26.62-.49,1.27-.69,1.94Z"/>
    <path class="cls-7" d="m449.49,183.95s-29.53,140.55-11.65,282.41l60.92,3.1s27.58-226.69-9.93-285.51h-39.34Z"/>
    <path class="cls-11" d="m506.73,127.45c.66,1,1.4,2.01,2.44,2.59,1.74.98,4.01.56,5.65-.56s2.79-2.84,3.77-4.58c1.77-3.13,3.17-6.54,3.49-10.12.32-3.58-.54-7.37-2.86-10.11-2.33-2.74-6.24-4.23-9.68-3.2-3.05.92-5.31,3.61-6.49,6.57-2.82,7.1-.34,13.3,3.67,19.41Z"/>
    <path class="cls-11" d="m433.4,132.76c-.66,1-1.4,2.01-2.44,2.59-1.74.98-4.01.56-5.65-.56s-2.79-2.84-3.77-4.58c-1.77-3.13-3.17-6.54-3.49-10.12s.54-7.37,2.86-10.11,6.24-4.23,9.68-3.2c3.05.92,5.31,3.61,6.49,6.57,2.82,7.1.34,13.3-3.67,19.41Z"/>
    <path class="cls-11" d="m491.76,207.13c-1.38,4.1-5.78,6.32-9.93,7.5-5.44,1.54-11.19,2.01-16.81,1.39-6.77-.75-14.41-4.28-15.49-11.01-.7-4.36,1.63-8.57,2.63-12.87,2.56-10.99-3.58-22.87-.08-33.59,4.46-13.65,22.39-17.57,32.79-8.03,7.49,6.87,3.83,19.19,3.79,28.06-.02,4.59.32,9.17,1.16,13.69.86,4.65,3.53,10.14,1.94,14.86Z"/>
    <path class="cls-5" d="m418.75,299.23v-4.01"/>
    <path class="cls-4" d="m519.86,204.05c9.6-13.7,25.14-4.88,37.14,1.8,71.41,39.75,144.36,81.48,223.18,100.09.04.4.08.8.12,1.2-1.11,8.36-2.43,16.68-3.98,24.95-11.64,2.02-23.49,2.96-35.28,2.82-24-.28-46.82-6.48-70.92-8.32-25.57-1.95-51.07-6.19-75.35-14.44-12.49-4.24-24.69-9.58-35.58-17.01-16.19-11.05-29.18-26.74-37.12-44.65-6.57-14.83-12.73-31.4-2.2-46.43Z"/>
    <path class="cls-6" d="m434.22,99.61c3.83-8.99,14.44-12.77,24.06-14.46s20.1-2.59,27.47-9c.77-.67,1.7-1.46,2.7-1.19.71.19,1.17.87,1.58,1.48,2.45,3.67,5.6,6.88,9.22,9.41,2.68,1.87,5.74,3.49,7.37,6.31,1.35,2.33,1.51,5.14,1.64,7.83.19,3.89.37,7.77.56,11.66,7.78-8.36,8.62-21.81,3.45-32-5.18-10.18-15.5-17.14-26.55-20.03s-22.79-2.08-33.95.34c-6.34,1.37-12.68,3.3-18.11,6.85s-9.92,8.92-11.28,15.27c-1.59,7.41,1.29,14.21,4.54,20.69,1.62,3.23,3.13,8.04,5.91,10.28.6-4.56-.53-8.89,1.4-13.43Z"/>
    <path class="cls-4" d="m326.29,269.4c-12.87,20.34-22.86,44.21-19.15,68,2.79,17.92,13.18,33.95,26.13,46.65,12.94,12.7,52.16,48.99,67.5,58.66-7.54-25.52-38.87-79.1-32.18-104.86,4.28-16.49,14.06-30.9,23.04-45.38,8.98-14.48,17.5-30,18.74-46.99.8-10.93-2.09-22.94-9.01-31.62-8.99-11.28-16.66-7.95-26.56.2-18.97,15.61-35.39,34.6-48.52,55.34Z"/>
    <path class="cls-2" d="m469.01,899.02l1.76,15.87c.63,5.72-3.8,10.74-9.56,10.82l-56.82.74c-7,.09-9.02-9.49-2.58-12.22,7.34-3.12,14.53-6.6,21.53-10.44,8.66-4.75,9.94-11.74,19.89-9.9,1.58.29,12.24.93,19.08-.01,3.3-.46,6.32,1.84,6.69,5.15Z"/>
    <path class="cls-2" d="m507,898.99l-1.77,15.87c-.64,5.72,3.79,10.74,9.55,10.82l56.82.78c7,.1,9.03-9.48,2.59-12.22-7.34-3.12-14.53-6.61-21.52-10.45-8.66-4.76-9.93-11.75-19.89-9.92-1.58.29-12.24.92-19.08-.03-3.3-.46-6.33,1.84-6.69,5.15Z"/>
    <path class="cls-12" d="m457.21,119.97c-.36-1.67-.86-3.96-2.84-4.36-.32-.06-.64-.02-.95.07-.92.08-1.65.77-1.67,1.72-.06,2.92.68,5.82,2.1,8.38.59,1.06,2.46,1.21,3,0,.43-.96.67-1.93.7-2.99.02-.94-.14-1.9-.33-2.81Z"/>
    <path class="cls-12" d="m489.38,114.86c-.18-.53-.61-1.13-1.21-1.21-.36-.05-.7-.05-1.03,0-.34-.11-.71-.14-1.02-.05-.61.17-1.02.63-1.21,1.21-.38,1.1-.58,2.27-.62,3.44-.02.53,0,1.07.06,1.6.07.65.14,1.29.4,1.9.3.71.86,1.31,1.64,1.49,1.03.24,2.01-.28,2.54-1.15.61-1,.83-2.32.93-3.47.11-1.25-.06-2.57-.47-3.76Z"/>
    <path class="cls-1" d="m490.29,138.77c-9.25,5.21-17.29,12.33-28.82,11.84,10.46-1.8,19.67-6.69,28.82-11.84Z"/>
  </g>
  <g>
    <path class="cls-11" d="m584.37,61.18c.36-1.22.52-2.63-.16-3.7-1.09-1.72-3.71-1.63-5.5-.65-1.78.98-3.17,2.59-4.99,3.5-.55.27-1.26.46-1.73.08-.5-.41-.42-1.17-.28-1.8,1.98-9.15,6.55-18.33,5.89-27.4-.17-2.34-3.25-3.2-4.69-1.35-3.6,4.64-4.47,12.68-10.07,15.07.19-4.7,1.52-9.28,2.11-13.95.59-4.67.35-9.72-2.27-13.62-.29-.43-.63-.86-1.1-1.06-1.26-.54-2.53.74-3.15,1.96-3.66,7.15-.91,16.73-5.79,23.11-.75-3.86-1.49-7.72-2.24-11.57-.79-4.07-1.84-8.52-4.38-11.6-1.38-1.67-4.07-1.04-4.62,1.05-.95,3.59-.37,7.67.66,11.34,1.4,4.95,3.51,9.86,3.32,15-2.66-5.36-5.32-10.71-7.98-16.07-.41-.83-.96-1.76-1.88-1.89-.7-.1-1.37.34-1.88.84-2.45,2.46-2.31,6.54-1.07,9.78s3.38,6.09,4.55,9.36c1.63,4.56,1.26,9.56,1.55,14.4.29,4.84,1.51,10.07,5.33,13.06,1.99,1.56,4.68,2.52,5.74,4.82.64,1.38.54,2.97.53,4.49-.04,3.83.58,7.82,2.76,10.97,2.73,3.93,8.52,6.19,12.52,2.77,3.64-3.12,1.45-6.24,1.6-10.18.45-11.79,14.13-16.29,17.2-26.77Z"/>
    <path class="cls-2" d="m689.29,532.2c-2.83,1.56-5.67,3.12-8.51,4.59-20.02,10.39-40.41,20.08-61.12,29.04,13.01-33.57,17.82-70.28,13.91-106.07-20-10.88-64.01-31.18-75.13-1.82-12.46,32.88-13.28,70.05-12.74,104.75.52,33.45,3.54,68.96,23.37,95.91,39.09-6.89,73.36-31.33,99.46-61.24,12.36-14.16,23.1-29.55,32.98-45.54-4.47-6.27-8.35-12.93-12.24-19.62Z"/>
    <path class="cls-13" d="m811.85,577.31c-23.07,11.82-48.19,19.64-73.93,22.77-3.33-46.41-19.95-91.79-47.38-129.36-1.53-2.09-3.12-4.19-5.19-5.74-2.78-2.07-6.21-3.01-9.58-3.83-21.78-5.32-53.28-12.14-75.53-6.37-19.01,4.93-9.98,30.23-7.3,46.14,7.17,42.63,23.52,83.68,47.48,119.65,13,19.52,28.26,37.55,45.48,53.48,2.5,2.31,5.16,4.65,8.43,5.58,3.19.91,6.6.38,9.86-.26,50.05-9.79,91.82-42.48,123.06-83.67-5.22-6.04-10.38-12.16-15.4-18.4Z"/>
    <path class="cls-6" d="m598.41,281.38c-6.5-12.47-8.55-28.28-7.29-43.32,1.11-13.37,4.68-26.69,3.14-39.96-1.47-12.68-7.55-25.02-4.97-37.45,2.94-14.2,15.39-20.66,23.05-31.52,8.02-11.37,10.62-27.53,17.52-40.08,8.03-14.6,22.03-23.31,35.76-22.24,13.73,1.07,26.71,11.87,33.16,27.6,2.85,6.94,5.09,15.49,10.76,18.26,3.18,1.55,6.73.82,10.11.24,9.42-1.62,19.34-1.83,27.97,3.21,8.84,5.16,15.62,15.86,17.83,28.13,2.54,14.1-.76,29-5.65,42.1-4.89,13.1-11.36,25.17-15.76,38.55-.77,2.32-1.43,5.17-.3,7.2,1.4,2.53,4.38,1.91,6.7,1.05,17.36-6.4,35.72-10.64,53.33-5.94,16.21,4.32,31.09,16.37,41.19,33.36,7.16,12.03,11.96,26.68,12.58,41.92.98,24.27-8.62,47.51-21.01,65.86-14.46,21.41-33.78,38.39-55.4,42.63-31.11,6.11-61.22-14.31-87.91-35.61-14.05-11.22-28.11-23.13-38.67-39.57-7.47-11.64-14.01-27.12-25.55-32.67-5.35-2.57-11.02-2.32-16.31-5.62-5.74-3.59-10.72-9.26-14.29-16.11Z"/>
    <path class="cls-11" d="m697.2,129.39c-.78-.91-1.65-1.81-2.76-2.25-1.85-.74-4.04-.04-5.53,1.29-1.49,1.33-2.4,3.18-3.14,5.03-1.35,3.34-2.3,6.9-2.15,10.49.15,3.59,1.49,7.24,4.15,9.66,2.66,2.42,6.73,3.39,10.01,1.91,2.9-1.31,4.8-4.27,5.58-7.36,1.88-7.41-1.39-13.23-6.16-18.77Z"/>
    <path class="cls-5" d="m683.72,321.39l.06-4.01"/>
    <path class="cls-15" d="m773.29,305.82l1.62.84"/>
    <g class="cls-3">
      <path class="cls-16" d="m924.31,181.03c-29.79,15.77-61.82,27.51-94.49,35.95-37.24,9.62-75.39,15.06-113.66,18.46-4.63-.71-8.9-1.29-12.35-1.88-13.43-2.28-27.01-3.71-40.62-4.27-4.02-4.93-14.84-10.07-19.33-13.98-6.42-5.59-12.42-11.64-18.03-18.04-11.49-13.11-21.26-27.71-29.35-43.14-11.74-22.39-19.97-46.4-26.04-70.98-7.15,1.92-14.03,4.88-20.86,8.44-3.08,18.01-3.3,36.64-1.46,54.83,3.34,33.06,13.05,65.1,22.95,96.82,4.2,13.45,8.68,27.19,16.32,38.89-2.23,5.54-4.29,11.15-6.32,16.76-15.87,43.75-31.9,88.27-34.46,134.74-.09,1.69-.15,3.47.59,4.99.81,1.66,2.44,2.74,4,3.72,47.64,29.89,107.27,40.02,162.1,27.54-6.53-18.51-4.76-38.87-1.34-58.2,5.91-33.41,16.57-65.98,31.51-96.44,25.31-5.2,49.88-14.47,72.84-26.43,35.58-18.53,67.57-43.3,97.56-69.94,8.36-7.42,16.61-15.07,24.43-23.1-4.73-4.85-9.37-9.78-13.98-14.75Z"/>
      <g>
        <path class="cls-4" d="m578.81,217.26c-.38.63-.32,1.59.24,2.11,4.54,4.21,10.5-.49,14.4-3.26,5.37-3.81,10.54-7.91,15.47-12.27,9.95-8.8,18.87-18.71,26.69-29.44,1.32-1.81-1.67-3.59-2.98-1.8-6.92,9.49-14.75,18.28-23.38,26.25-4.19,3.86-8.55,7.53-13.09,10.97-2.44,1.86-4.94,3.65-7.48,5.37-1.42.96-3.94,2.71-5.91,2.34,10.18-16.27,25.22-29.1,42.93-36.54,2.06-.86.34-3.89-1.71-3.03-18.78,7.9-34.74,21.82-45.2,39.3Z"/>
        <path class="cls-4" d="m583.42,164.23c-3.95,2.58-7.63,5.55-11.65,8.02-1.87,1.15-3.82,2.22-5.88,2.98-1.94.72-5.01,1.82-7.09,1.24-2.84-.79.92-4.12,1.98-5.01,2.19-1.84,4.44-3.61,6.68-5.39,4.08-3.24,8.18-6.44,12.15-9.8,3.96-3.35,7.81-6.84,11.35-10.64,2.78-2.99,5.5-6.53,4.24-10.85-1.08-3.68-4.56-6.48-8.25-7.24-4.69-.97-9.42.78-13.53,2.93-8.84,4.63-16.41,11.66-21.87,20-2.72,4.16-4.88,8.66-6.48,13.36-1.79,5.23-3.06,10.88-6.59,15.28-1.39,1.72,1.02,4.24,2.42,2.49,5.57-6.93,6.51-16.07,10.45-23.85,3.86-7.62,9.45-14.34,16.26-19.5,5.45-4.13,18.95-12.82,23.81-3.54,2.3,4.38-2.84,8.45-5.6,11.2-3.5,3.48-7.23,6.71-11.04,9.84-3.82,3.14-7.72,6.18-11.59,9.26-3.08,2.46-7.56,5.08-8.74,9.11-1.21,4.11,2.47,6.07,6.03,5.82,3.99-.29,7.76-1.71,11.23-3.64,7.9-4.39,14.51-10.52,22.88-14.17,2.21-.96,4.49-1.79,6.8-2.48,2-.6,4.47-1.55,6.59-1.1,5.29,1.11-2.31,9.51-4.02,11.11-3.88,3.63-8.48,6.44-12.86,9.4-5.04,3.41-10.08,6.82-15.11,10.23-10.32,6.98-20.63,13.96-30.95,20.94-1.84,1.24-.15,4.28,1.71,3.03,9.72-6.57,19.43-13.15,29.15-19.72,9.09-6.15,18.61-11.95,27.29-18.68,3.53-2.74,6.91-6.01,8.91-10.07,1.69-3.44,1.71-8.08-2.62-9.43-4-1.24-8.9.8-12.61,2.16-4.72,1.73-9.24,3.97-13.45,6.71Z"/>
        <path class="cls-4" d="m886.72,194.48c-3.51-1.41-7.45-1.19-11.14-.87-4.18.37-8.32,1.08-12.38,2.14-17.17,4.44-32.42,14.28-46.2,25.16-14.24,11.25-27.46,23.78-40.44,36.44-26.27,25.64-51.6,52.64-81.43,74.25-3.54,2.57-7.11,5.22-10.87,7.46-2.52,1.51-6.44,3.4-9.25,1.89,14.75-18.87,32.64-34.97,50.77-50.52,18.49-15.86,37.43-31.33,54.12-49.14,4.11-4.38,8.07-8.9,11.83-13.57,3.34-4.16,7.97-8.88,8.41-14.48.47-5.9-5.08-8.18-10.09-7.69-6,.58-11.85,2.57-17.27,5.16-11.44,5.46-21.26,13.89-30.88,22.01-10.48,8.85-20.7,18.01-30.72,27.38-20.07,18.75-39.34,38.32-58.48,58.02-19.15,19.72-38.17,39.56-57.73,58.88-18.38,18.15-37.23,37.41-61.09,48.26-3.32,1.51-9.11,3.28-12.34.59-2.3-1.92-.29-4.91,1.1-6.72,1.86-2.42,3.83-4.76,5.82-7.07,7.65-8.89,16.03-17.13,24.8-24.92,17.69-15.72,36.9-29.59,55.7-43.92,18.71-14.25,37.2-29.03,53.15-46.39,3.81-4.14,7.44-8.43,10.92-12.84,1.06-1.34-.63-2.76-1.92-2.58-9.31,1.31-17.94,5.29-25.95,10.08-7.99,4.78-15.6,10.21-23.04,15.8-15.23,11.43-29.61,23.94-44.11,36.27-14.57,12.39-29.3,24.64-45.15,35.36-3.75,2.54-7.87,5.95-12.42,6.81-1.93.36-4.08.05-5.66-1.19-2.23-1.74-1.83-4.32-.67-6.61,3.8-7.5,9.79-14.3,15.68-20.22,11.93-11.99,26.25-21.27,40.94-29.5,16.09-9.02,32.74-17.05,49.06-25.64,36-18.94,71.41-39.05,105.51-61.24,15.38-10.01,31.08-20.09,44.6-32.57,6.22-5.75,11.95-12.09,16.67-19.14,2.37-3.55,4.5-7.29,6.24-11.2,1.44-3.23,2.32-7.25-.59-9.98-5.31-4.99-13.96,1.03-18.62,3.93-7.5,4.66-14.83,9.59-22.05,14.66-14.42,10.13-28.42,20.82-42.66,31.19-14,10.19-28.26,20.1-43.31,28.71-14.9,8.52-30.89,16.27-47.57,20.58-3.44.89-9.16,1.24-8.78-3.91.29-3.91,3.34-7.49,5.79-10.34,4.74-5.52,10.49-10.04,16.56-14,12.34-8.07,25.93-14.11,37.76-22.98,10.48-7.86,23.07-20.71,19.83-35.18-1.63-7.28-8.41-11.43-15.66-10.56-8.94,1.08-16.44,7.37-23.51,12.42-16.86,12.03-33.51,24.34-49.95,36.93-8.22,6.29-16.38,12.65-24.49,19.08-7.5,5.95-14.9,12.07-22.86,17.42-7.43,4.99-15.36,9.25-23.98,11.77-2.14.62-1.28,3.99.87,3.37,17.78-5.19,32.18-17.18,46.42-28.49,16.41-13.05,33.05-25.82,49.9-38.3,8.32-6.16,16.69-12.24,25.11-18.26,7.06-5.04,15.47-12.66,24.7-12.61,8.66.04,11.51,8.43,9.93,15.69-1.59,7.32-6.36,13.28-11.68,18.33-10.73,10.18-24.37,16.53-36.99,23.96-6.23,3.66-12.34,7.62-17.8,12.36-2.78,2.41-5.37,5.04-7.69,7.91-2.28,2.81-4.6,5.88-5.42,9.48-.77,3.36.03,6.98,3.17,8.85,3.16,1.88,7.2,1.13,10.53.2,8.2-2.3,16.21-5.34,24-8.75,15.76-6.9,30.62-15.69,44.91-25.24,29.22-19.53,56.21-42.26,86.06-60.88,3.26-2.03,6.55-4.48,10.36-5.33,1.38-.31,3.21-.56,4.46.3,2.09,1.43.97,4.36.16,6.21-3.51,7.97-8.74,15.24-14.58,21.66-12.07,13.28-27.07,23.47-41.91,33.37-33.84,22.58-69.08,43.02-104.95,62.18-16.82,8.98-33.91,17.44-50.74,26.4-6.57,3.5-13.1,7.16-19.45,11.08,8.6-5.77,16.53-12.5,23.54-20.13,3.51-3.82,6.79-7.85,9.83-12.05,2.91-4.03,6.13-8.32,7.91-13,1.57-4.14.99-8.91-3.28-11.1-4.23-2.18-9.73-1.29-14,.29-9.7,3.59-18.07,11.1-25,18.58-4.05,4.36-7.76,9.03-11.32,13.8-2.63,3.53-8.36,9.23-5.28,13.95.44.67,1.16,1,1.95.83.94-.21,1.88-.41,2.82-.62,2.18-.48,1.31-3.85-.87-3.36-.41.09-.83.18-1.24.27-.11-1.58,1.23-3.26,2.11-4.48,1.36-1.91,2.75-3.8,4.16-5.67,2.81-3.73,5.73-7.37,8.86-10.85,6.07-6.75,13.01-13.18,21.11-17.43,3.87-2.03,8.58-3.71,13-2.89,5.59,1.03,4.7,6.15,2.54,10.04-4.25,7.66-9.79,14.78-15.7,21.22-6.89,7.5-14.65,14.14-23.11,19.8-1.8,1.21-.23,4.1,1.58,3.08-7.82,4.84-15.37,10.1-22.39,16.06-6.34,5.39-12.17,11.35-17.25,17.94-2.56,3.31-5.2,6.83-7.06,10.6-1.75,3.54-1.93,7.61,1.22,10.42,6.98,6.22,16.04-.65,22.07-4.72,7.74-5.22,15.22-10.8,22.54-16.58,29.84-23.55,57.03-51.15,89.74-70.86,6.47-3.9,13.28-7.2,20.59-8.98-14.06,17.01-30.77,31.64-48.06,45.29-18.59,14.67-37.94,28.36-56.25,43.39-9.08,7.46-17.89,15.25-26.14,23.61-4.08,4.13-8.01,8.41-11.77,12.84-1.87,2.21-3.75,4.44-5.48,6.75-1.58,2.11-2.87,4.64-2.3,7.35.84,3.96,4.93,5.45,8.56,5.59,5.18.21,9.76-2.08,14.25-4.38,11.34-5.79,21.6-13.51,31.19-21.85,9.99-8.69,19.41-18.04,28.81-27.37,9.76-9.68,19.38-19.49,28.97-29.33,19.17-19.69,38.16-39.56,57.66-58.93,19.46-19.34,39.44-38.19,60.5-55.79,9.74-8.14,19.91-16.61,31.96-21.11,2.8-1.05,5.69-1.87,8.64-2.41,2.56-.47,7.15-1.36,8.66,1.55,1.36,2.63-.9,6.14-2.37,8.24-1.8,2.56-3.79,5-5.77,7.42-15.43,18.87-33.89,34.93-52.38,50.7-18.52,15.8-37.33,31.46-53.61,49.64-3.88,4.33-7.59,8.8-11.13,13.4-.47.61-.24,1.59.24,2.11,5.78,6.26,14.81-.34,20.03-3.94,7.29-5.02,14.34-10.39,21.18-16,14.18-11.61,27.47-24.25,40.53-37.09,13.03-12.8,25.85-25.81,39.18-38.3,13.24-12.4,26.91-24.75,42.25-34.53,7.36-4.7,15.17-8.81,23.44-11.64,4.15-1.42,8.41-2.53,12.74-3.25,4.03-.67,8.55-1.36,12.61-.61,1.56.29,3.26.82,4.33,2.06,1.69,1.94,1.01,4.64.13,6.79-1.72,4.2-4.48,8.1-7.34,11.58-6.06,7.4-13.25,13.92-20.05,20.63-28.91,28.57-57.97,57.01-88.45,83.91-15,13.24-30.19,26.5-46.58,38.02-15.92,11.2-33.24,19.68-51.09,27.32-13.76,5.89-27.92,11.58-41.52,18.25,4.49-4.83,8.94-9.71,13.29-14.67,4.51-5.15,8.89-10.4,13.11-15.79,2.06-2.63,4.08-5.3,6.05-8,1.71-2.35,3.54-4.66,4.69-7.34,1.78-4.14,1.61-10-3.88-10.91-2.63-.44-5.19.72-7.53,1.78-2.59,1.18-5.14,2.46-7.64,3.82-19.8,10.81-36.08,26.83-51.05,43.47-15.25,16.97-29.35,35.22-46.08,50.8-2.01,1.87-5.36,4.65-8.14,2.77-1.86-1.26-3.65,1.72-1.8,2.98,4.73,3.2,9.93-.91,13.32-4.17,4-3.85,7.86-7.83,11.64-11.89,7.62-8.19,14.89-16.7,22.21-25.15,14.41-16.65,29.15-33.5,47.06-46.53,4.39-3.19,8.95-6.14,13.69-8.78,2.29-1.28,4.63-2.48,7-3.6,2.06-.97,6.87-3.82,8.53-.92,1,1.74-.19,4.44-1,6-1.46,2.78-3.56,5.3-5.42,7.81-4.06,5.47-8.32,10.78-12.72,15.98-7.9,9.33-16.22,18.3-24.67,27.16-14.74,7.97-28.52,17.46-39.94,30.1-5.43,6.01-10.22,12.64-13.95,19.84-1.38,2.65-2.75,5.74-3.44,8.9-2.36,2.39-4.69,4.81-7.08,7.17-10.29,10.17-21.14,19.84-33.5,27.46-1.9,1.17-.2,4.21,1.71,3.03,14.28-8.8,26.7-20.17,38.53-32.11.17,1.42.52,2.82,1.22,4.14,1.43,2.73,4.32,4.35,7.39,4.29,4.25-.08,8.12-2.88,11.63-4.98,7.39-4.44,14.59-9.2,21.65-14.14,27.9-19.53,53.74-41.98,82.82-59.81,14.35-8.8,29.57-16.58,45.68-21.61,4.65-1.45,14.76-3.21,16.77,3.13,1.38,4.34-2.63,8.75-5.07,11.92-2.48,3.22-5.08,6.35-7.76,9.41-21.27,24.35-47.56,44.5-65.32,71.83-4.2,6.46-7.78,13.27-10.68,20.4-.53,1.32.93,2.41,2.11,2.17,12.71-2.55,23.98-10.1,31.3-20.77,1.27-1.85-1.71-3.64-2.97-1.8-6.15,8.97-15.35,15.41-25.75,18.34,12.86-29.03,37.71-50.33,59.58-72.52,5.79-5.88,11.46-11.88,16.78-18.19,2.52-2.99,4.99-6.04,7.31-9.19,2.53-3.42,5.02-7.57,3.98-12-1.48-6.32-8.55-7.86-14.16-7.44-7.49.57-14.85,3.92-21.7,6.78-31.49,13.14-58.65,34.35-85.59,54.86-13.84,10.53-27.74,21.02-42.38,30.43-3.52,2.26-7.09,4.47-10.7,6.58-3.17,1.86-8.69,5.29-11.55,1.16-1.27-1.83-1.36-4.32-1.05-6.62,6.05-6.2,11.98-12.5,17.96-18.64,12.76-13.11,25.71-26.1,38.35-39.37,10.28-5.54,20.97-10.34,31.42-14.78,17.94-7.63,36.17-14.8,53.13-24.51,16.98-9.72,32.28-22.03,47.17-34.64,31.24-26.44,60.84-54.75,90.04-83.41,7.35-7.22,14.68-14.46,22-21.71,6.46-6.39,13.18-12.74,18.13-20.43,2.15-3.35,4.63-7.39,4.7-11.5.06-3.63-2.15-6.47-5.44-7.8Zm-295.27,248.81c-6.57,6.75-13.12,13.53-19.71,20.28.82-1.68,1.76-3.3,2.68-4.89,9.7-16.7,24.11-29.13,40.28-39.16-7.74,7.95-15.53,15.84-23.25,23.78Z"/>
        <path class="cls-4" d="m512.66,152.29c-3.33-3-1.4-7.55.86-10.55,2.31-3.06,5.07-5.86,7.75-8.6,5.31-5.43,11-10.48,17.02-15.11,12.15-9.35,25.7-17.01,39.98-22.57,6.35-2.47,12.86-4.52,19.47-6.18-3.48,3.32-7.68,5.85-11.94,8.1-6.12,3.24-12.33,6.25-18.35,9.69-12.33,7.06-24.09,15.12-35.13,24.07-6.4,5.18-12.54,10.67-18.43,16.43-1.6,1.57.82,4.06,2.42,2.49,10.49-10.26,21.82-19.66,33.89-28.01,11.82-8.18,24.32-14.8,37.01-21.49,6.44-3.4,12.57-7.38,16.92-13.34.95-1.3-.56-2.88-1.92-2.58-32.4,6.98-62.54,23.91-85.3,48.01-4.92,5.21-14.52,15.03-6.74,22.05,1.65,1.49,4.16-.92,2.49-2.42Z"/>
        <path class="cls-4" d="m967.06,187.37c-18.17,12.92-37.53,24.13-57.81,33.39-2.53,1.16-5.08,2.28-7.64,3.38-1.81.77-5.34,2.73-7.29,1.33-1.95-1.39-.65-4.76-.03-6.51.83-2.33,1.74-4.63,2.71-6.9,3.96-9.27,9.07-18.06,15.08-26.15,6.72-9.05,14.66-17.15,23.48-24.15,1.75-1.39-.68-3.87-2.42-2.49-17.04,13.52-30.56,31.21-39.2,51.17-1.03,2.37-1.99,4.78-2.87,7.21-.78,2.18-1.52,4.58-1.08,6.92.99,5.21,6.44,5.33,10.49,3.78,11.43-4.38,22.53-10.11,33.25-15.98,12.1-6.63,23.8-13.98,35.05-21.97,1.8-1.28.12-4.33-1.71-3.03Z"/>
      </g>
    </g>
    <path class="cls-11" d="m702.13,188.78c-3.79,14.4-9.99,28.41-19.89,39.54-3.88,4.36-8.55,8.38-14.22,9.76-6.59,1.61-13.7-.65-19.12-4.73s-9.38-9.8-12.72-15.71c-13.43-23.81-17.97-52.49-12.55-79.28.42-2.08.92-4.2,2.08-5.99.99-1.53,2.42-2.74,3.93-3.77,10.17-6.93,23.59-6.24,35.76-4.39,13.25,2.02,31.93,5.58,40.91,16.75,4.44,5.52,1.6,13.93.78,20.52-1.14,9.18-2.61,18.34-4.97,27.3Z"/>
    <path class="cls-11" d="m713.88,169.83c2.88,1.57,3.51,5.36,3.76,8.63.23,2.98.42,6.05-.44,8.91-.62,2.06-1.77,3.93-3.11,5.61-1.56,1.97-3.4,3.71-5.44,5.17-1.52,1.09-3.27,2.05-5.14,1.98-3.56-.13-5.93-3.87-6.52-7.38-1.08-6.4,6.94-28.36,16.9-22.93Z"/>
    <path class="cls-11" d="m684.61,248.65c-1.44,4.08-5.87,6.23-10.05,7.35-5.47,1.46-11.22,1.84-16.83,1.13-6.76-.86-14.34-4.49-15.32-11.24-.63-4.37,1.75-8.54,2.82-12.83,2.72-10.95-3.24-22.92.43-33.59,4.67-13.59,22.65-17.23,32.91-7.54,7.38,6.98,3.54,19.24,3.36,28.12-.09,4.59.19,9.17.96,13.7.79,4.66,3.38,10.19,1.72,14.89Z"/>
    <path class="cls-6" d="m645.87,156.38c.65.03,1.32.06,1.91-.21.81-.38,1.25-1.25,1.65-2.05,2.57-5.15,5.78-9.97,9.55-14.32.65,3.28,1.3,6.56,1.95,9.84.28,1.39.61,2.89,1.7,3.8.99.83,2.38.97,3.66,1.11,13.84,1.45,27.26,6.8,38.29,15.27,7.47-7.28,8.35-19.14,6.08-29.33-.61-2.73-1.42-5.45-2.87-7.84-2.93-4.83-8.1-7.76-13.06-10.46-7.6-4.14-15.56-8.31-24.2-8.77-4.62-.25-9.22.59-13.77,1.42-4.78.87-9.56,1.74-14.34,2.61-2.6.47-5.24.96-7.62,2.1-2.57,1.23-4.73,3.17-6.64,5.28-5.57,6.13-11.93,17.79-9.56,26.49,1.2,4.42,4.76,3.88,8.82,4.09,6.15.33,12.3.65,18.45.97Z"/>
    <path class="cls-11" d="m926.93,154.59c.55-1.15,1.36-2.31,2.59-2.65,1.96-.55,3.85,1.26,4.53,3.18.68,1.92.64,4.04,1.39,5.93.23.57.63,1.18,1.24,1.21.64.03,1.09-.6,1.41-1.16,4.62-8.14,7.33-18.03,13.86-24.36,1.68-1.63,4.56-.22,4.4,2.12-.41,5.85-5.11,12.44-2.52,17.95,2.99-3.63,5.05-7.93,7.72-11.81s6.21-7.48,10.77-8.64c.5-.13,1.04-.22,1.53-.06,1.29.44,1.39,2.24,1.04,3.56-2.03,7.77-10.47,13.08-11.07,21.09,3.13-2.38,6.25-4.76,9.38-7.14,3.29-2.51,7.05-5.13,10.99-5.73,2.14-.33,3.73,1.93,2.75,3.86-1.68,3.31-4.84,5.97-8.05,8.02-4.34,2.77-9.19,5.01-12.47,8.98,5.55-2.22,11.1-4.45,16.66-6.67.86-.34,1.89-.67,2.66-.16.59.4.8,1.17.84,1.88.19,3.47-2.63,6.42-5.72,8.01-3.09,1.59-6.58,2.29-9.62,3.95-4.26,2.32-7.31,6.29-10.75,9.71-3.44,3.42-7.83,6.5-12.67,6.19-2.53-.16-5.17-1.23-7.5-.23-1.4.6-2.38,1.85-3.38,3-2.52,2.88-5.64,5.45-9.37,6.34-4.66,1.12-10.48-1.06-11.18-6.27-.64-4.75,3.07-5.62,5.58-8.66,7.52-9.09.31-21.57,5-31.42Z"/>
    <path class="cls-6" d="m805.53,574.52l10.45-12.02c3.77-4.33,10.45-4.47,14.39-.3l38.95,41.16c4.8,5.07-.86,13.03-7.22,10.15-7.25-3.28-14.66-6.19-22.21-8.73-9.34-3.14-15.33.65-20.71-7.89-.86-1.36-7.59-9.6-12.91-13.98-2.56-2.11-2.92-5.88-.74-8.39Z"/>
    <path class="cls-12" d="m645.71,185.25c-.7-2.4-2.86-4.3-5.33-4.64-.05-.03-.09-.07-.14-.1-.77-.48-1.94-.23-2.39.59-.16.28-.2.59-.21.89-.02.09-.06.18-.06.27.03.86.68,1.69,1.58,1.74.57.38,1.14.76,1.68,1.18.67.54,1.32,1.11,1.93,1.72.53.52,1.44.71,2.1.3.64-.4,1.05-1.19.83-1.95Z"/>
    <path class="cls-12" d="m680.39,183.42c-2.08-.16-4.19.17-6.17.85-.12.04-.24.08-.36.12-.33.13-.66.26-.98.4-.29.12-.59.22-.88.36-.12.06-.2.16-.29.24-.18.1-.37.17-.55.28-.77.48-1.17,1.55-.66,2.37.48.77,1.54,1.17,2.37.66.59-.37,1.2-.67,1.83-.96,0,0,.03,0,.03-.01.14-.05.28-.1.42-.15.59-.2,1.19-.36,1.8-.48.29-.06.59-.11.88-.15.05,0,.05,0,.07-.01.02,0,.01,0,.06,0,.15-.01.3-.03.45-.04.64-.05,1.29-.05,1.93-.01.91.05,1.79-.8,1.76-1.71-.03-.99-.74-1.69-1.71-1.76Z"/>
    <path class="cls-1" d="m671.04,204.18c.35-.05.77-.07,1.01.18.17.18.21.44.23.68.59,5.37-.92,11.44-5.44,14.41-2.96,1.95-6.87,2.23-10.21,1.04-3.34-1.19-6.11-3.76-7.85-6.85-.77-1.36-2.15-4.47-.98-5.99,1-1.31,5.17-1.1,6.78-1.31,5.48-.72,10.96-1.44,16.45-2.17Z"/>
  </g>
</svg>